<?xml version="1.0" standalone="no"?>
<!DOCTYPE svg PUBLIC "-//W3C//DTD SVG 20010904//EN"
 "http://www.w3.org/TR/2001/REC-SVG-20010904/DTD/svg10.dtd">
<svg version="1.0" xmlns="http://www.w3.org/2000/svg"
 width="1024.000000pt" height="1024.000000pt" viewBox="0 0 1024.000000 1024.000000"
 preserveAspectRatio="xMidYMid meet">

<g transform="translate(0.000000,1024.000000) scale(0.100000,-0.100000)"
fill="#000000" stroke="none">
<path d="M0 5120 l0 -5120 5120 0 5120 0 0 5120 0 5120 -5120 0 -5120 0 0
-5120z m5350 3469 l50 -21 0 -888 0 -887 -22 -12 c-13 -6 -16 -10 -6 -7 24 7
30 -5 10 -21 -16 -12 -16 -13 3 -7 19 5 19 5 1 -7 -15 -9 -20 -9 -28 5 -12 21
-28 21 -28 -1 0 -15 -2 -16 -10 -3 -8 13 -10 13 -10 -2 0 -9 -7 -21 -16 -26
-11 -6 -13 -11 -5 -16 6 -4 11 -2 11 5 0 8 3 9 13 0 8 -6 16 -8 19 -5 3 3 9
-1 14 -8 4 -7 4 -10 -1 -6 -4 4 -15 2 -23 -5 -13 -9 -14 -9 -8 1 4 6 2 12 -3
12 -6 0 -11 -6 -11 -12 -1 -20 -79 70 -158 179 -39 54 -96 123 -127 153 l-56
55 35 -59 c20 -33 36 -64 36 -68 0 -5 7 -25 17 -46 34 -77 41 -101 28 -95 -7
2 -16 -1 -20 -7 -3 -6 -1 -9 5 -8 6 2 19 -7 27 -19 14 -21 14 -23 -3 -23 -16
0 -17 -2 -4 -10 11 -8 7 -9 -15 -4 -53 12 -109 51 -229 161 -107 97 -226 192
-226 180 0 -3 14 -20 31 -38 18 -19 63 -81 101 -138 55 -81 67 -106 57 -115
-9 -8 -10 -7 -5 9 6 15 4 17 -5 8 -12 -12 -3 -37 10 -28 5 2 17 -3 27 -11 10
-9 13 -12 5 -8 -11 5 -13 3 -8 -9 6 -15 1 -16 -36 -11 -48 8 -177 53 -239 85
-83 42 -164 104 -293 224 -71 67 -166 148 -210 181 -79 60 -93 69 -170 114
l-40 23 51 -49 c71 -69 99 -111 84 -128 -8 -11 -8 -16 1 -22 8 -4 9 -3 5 4 -4
7 -1 12 8 12 13 0 14 -5 6 -27 -10 -27 -9 -27 6 -8 15 20 16 19 12 -5 -2 -16
2 -24 10 -22 6 1 12 -2 12 -8 0 -15 -7 -13 -69 16 -119 57 -214 130 -405 313
-46 44 -68 61 -53 41 14 -19 42 -64 62 -100 38 -65 111 -169 130 -182 6 -5 6
-8 -2 -8 -6 0 -19 -3 -29 -7 -12 -4 -15 -3 -10 5 4 7 2 12 -3 12 -6 0 -14 0
-18 0 -4 0 -8 -6 -9 -13 -1 -9 8 -13 27 -12 15 1 26 -2 23 -6 -2 -4 5 -11 17
-14 11 -4 18 -9 16 -12 -3 -2 -15 0 -26 7 -15 7 -27 8 -39 1 -14 -8 -14 -11
-2 -12 8 -1 18 -1 23 0 4 0 7 -4 7 -10 0 -5 5 -7 12 -3 6 4 8 3 5 -3 -3 -5
-21 -8 -39 -7 -18 2 -93 7 -167 10 -99 5 -132 4 -127 -5 4 -6 15 -11 24 -11 9
0 46 -15 82 -33 118 -60 124 -66 94 -103 -12 -15 -15 -15 -10 -2 3 9 -2 19
-11 22 -11 5 -14 2 -9 -11 6 -16 5 -15 -13 1 -14 13 -21 14 -27 5 -4 -8 -3
-10 4 -5 7 4 12 3 12 -3 0 -11 39 -26 59 -22 7 1 10 -2 7 -7 -7 -11 22 -25 35
-17 5 4 6 0 3 -8 -4 -13 -38 -17 -48 -6 -9 8 -288 -19 -351 -34 -33 -8 -76
-21 -95 -30 l-35 -15 60 5 c43 4 91 -1 160 -17 100 -23 255 -85 255 -102 0 -5
10 -13 23 -18 15 -6 -22 -9 -113 -9 -274 -2 -498 -65 -697 -197 -83 -55 -218
-180 -286 -264 l-36 -45 25 95 c14 52 37 120 50 151 71 169 202 336 346 439
27 18 46 35 44 37 -5 6 -146 -47 -207 -78 -30 -15 -77 -44 -102 -63 -26 -20
-47 -32 -47 -28 0 17 64 139 107 207 25 39 82 108 127 154 161 166 306 238
506 250 l105 7 -55 18 c-89 30 -230 33 -326 6 -43 -12 -98 -30 -122 -40 -49
-22 -49 -22 24 75 152 204 387 354 620 395 67 12 277 9 349 -4 18 -4 2 8 -42
30 -128 63 -342 82 -475 41 -27 -8 -48 -12 -48 -7 0 4 28 31 63 59 74 61 213
132 317 161 104 30 289 37 389 16 41 -9 76 -14 78 -12 7 7 -81 53 -142 75 -33
12 -94 27 -135 34 l-74 12 74 37 c106 52 177 69 315 75 101 4 134 2 209 -16
49 -12 96 -26 103 -33 7 -6 16 -8 19 -5 14 14 -137 115 -221 147 l-30 12 25
13 c37 19 162 45 249 52 93 7 237 -17 316 -51 30 -14 55 -22 55 -18 0 12 -91
97 -134 125 l-39 26 38 7 c123 23 380 -35 458 -104 32 -28 17 5 -29 67 -25 34
-51 61 -57 61 -8 0 -8 3 1 8 19 13 126 -5 182 -29z m580 -24 c106 -17 248 -53
255 -65 2 -4 -33 -10 -78 -13 -133 -9 -241 -43 -419 -133 -53 -26 -68 -30 -68
-18 0 9 5 12 13 8 9 -6 9 -4 -1 8 -10 13 -10 17 0 21 9 4 9 6 -2 6 -8 1 -21
-8 -28 -19 -7 -11 -20 -20 -30 -19 -14 0 -14 2 3 9 17 7 17 9 3 9 -10 1 -18 7
-18 15 0 8 -5 18 -12 22 -8 5 -9 1 -4 -12 5 -13 4 -16 -4 -8 -5 6 -13 46 -16
90 -8 114 -9 114 169 114 79 0 184 -7 237 -15z m2294 -22 c-66 -274 -327 -570
-714 -808 -162 -100 -290 -193 -290 -211 0 -8 -5 -12 -10 -9 -6 4 -31 -13 -55
-38 -25 -24 -48 -41 -51 -38 -4 3 -4 1 -1 -6 4 -6 3 -13 -3 -15 -6 -2 -1 -9 9
-15 17 -11 19 -10 16 6 -2 10 1 24 5 31 7 12 11 11 27 0 15 -12 16 -12 6 0
-19 21 -15 32 6 18 11 -7 18 -15 16 -18 -2 -4 2 -7 9 -7 11 0 12 4 3 18 -6 10
-15 15 -21 12 -5 -4 -6 -1 -2 6 6 9 12 9 24 -3 15 -13 20 -13 36 0 16 11 22
11 29 1 6 -8 7 -7 3 5 -3 10 -1 20 5 23 5 4 6 11 3 17 -4 5 4 4 17 -3 23 -12
23 -11 9 6 -9 11 -10 16 -2 11 6 -4 12 -2 12 4 0 6 11 8 24 6 20 -4 24 -1 21
15 -2 10 1 19 6 19 6 0 7 6 3 13 -5 8 -2 8 9 -2 11 -9 17 -10 17 -2 0 6 5 11
10 11 18 0 11 -17 -12 -29 -13 -6 -15 -9 -6 -7 11 3 15 0 12 -8 -3 -7 2 -16
12 -20 13 -5 14 -4 6 7 -9 10 -8 19 3 34 8 11 11 24 7 28 -4 5 -1 5 6 1 8 -5
12 -1 12 11 0 11 3 14 8 7 4 -7 24 -11 44 -9 25 1 35 -2 31 -9 -3 -6 -2 -8 2
-3 5 4 10 17 12 29 2 11 11 27 21 35 16 12 16 13 -2 6 -13 -4 -17 -3 -12 5 11
17 37 15 52 -5 11 -15 12 -13 5 18 -7 33 -6 36 10 32 11 -3 19 -10 19 -15 0
-5 -4 -7 -9 -4 -11 7 -8 -20 3 -31 4 -4 6 -1 4 7 -2 9 4 14 15 14 9 -1 17 2
17 7 0 5 6 9 13 9 7 0 18 5 25 12 9 9 8 16 -5 31 -17 18 -17 18 11 6 25 -12
30 -11 43 6 8 11 19 19 25 17 7 -2 7 2 -1 12 -10 12 -9 14 10 9 17 -5 20 -3
14 7 -5 9 -4 11 4 6 6 -4 26 7 46 28 19 20 37 36 41 36 11 0 33 28 27 34 -4 3
1 6 11 6 9 0 14 5 11 10 -3 6 1 10 10 10 11 0 15 5 11 16 -3 8 -2 12 4 9 6 -3
13 1 16 9 3 9 10 13 15 10 5 -3 9 0 9 5 0 6 7 19 14 28 8 10 24 29 35 43 10
14 22 22 25 19 12 -12 -100 -157 -193 -249 -100 -100 -237 -208 -381 -300
-169 -109 -274 -196 -523 -433 -264 -253 -403 -369 -573 -480 -124 -82 -394
-222 -530 -276 -88 -35 -338 -121 -351 -121 -2 0 -3 84 -1 186 l3 186 53 18
c97 34 389 203 400 232 2 4 8 8 13 8 12 0 164 128 267 225 44 41 82 72 86 70
3 -3 4 -2 1 2 -6 8 14 33 27 33 5 0 7 -4 4 -9 -3 -4 0 -16 8 -26 11 -15 13
-16 13 -1 0 9 -3 16 -7 16 -16 0 -6 40 16 61 29 27 63 37 42 12 -10 -12 -9
-17 3 -27 15 -12 14 -46 -2 -46 -5 0 -9 -7 -9 -15 0 -8 -4 -15 -8 -15 -4 0
-15 -12 -24 -27 -9 -16 -25 -37 -35 -48 -10 -11 -35 -42 -55 -68 -68 -89 -141
-171 -227 -256 -85 -83 -85 -84 -36 -56 162 93 327 225 458 367 49 53 158 185
244 294 182 233 244 303 384 440 141 138 223 209 358 312 110 84 708 489 724
491 4 1 4 -11 1 -26z m-1757 -174 c122 -17 346 -94 406 -140 15 -12 -3 -14
-125 -11 -83 2 -168 -1 -203 -8 -82 -16 -285 -85 -355 -120 -47 -24 -59 -27
-64 -15 -3 8 -2 14 2 14 24 -4 52 3 52 12 0 5 -6 7 -12 3 -9 -5 -9 -2 1 9 12
15 9 21 -11 18 -4 0 -5 6 -1 15 4 10 1 15 -8 14 -27 -4 -49 0 -49 9 0 5 13 7
30 6 16 -1 28 1 25 5 -2 4 -17 6 -32 5 -24 -1 -28 -5 -28 -30 0 -17 -5 -30
-12 -30 -6 0 -15 -4 -20 -9 -5 -5 -3 -6 5 -2 6 4 12 3 12 -3 0 -5 -9 -9 -19
-8 -11 0 -17 6 -14 14 6 16 -9 17 -25 1 -9 -9 -13 -7 -18 5 -3 9 -9 15 -13 12
-4 -2 -8 2 -8 10 0 8 4 12 8 9 4 -2 10 0 14 6 4 6 11 7 17 4 5 -4 4 4 -3 17
-11 20 -14 21 -17 7 -2 -12 -13 -18 -29 -18 -19 0 -24 4 -19 16 6 15 4 15 -11
3 -16 -13 -16 -12 0 14 63 98 231 173 394 176 28 1 87 -4 130 -10z m-860 -51
c-3 -8 -6 -5 -6 6 -1 11 2 17 5 13 3 -3 4 -12 1 -19z m332 -166 c7 -14 6 -19
-4 -19 -7 0 -11 7 -7 15 3 10 1 13 -6 8 -7 -4 -12 -2 -12 3 0 17 18 13 29 -7z
m202 -29 c13 -17 13 -17 -6 -3 -11 8 -22 16 -24 17 -2 2 0 3 6 3 6 0 17 -8 24
-17z m865 -54 c71 -13 153 -36 174 -49 12 -7 -4 -26 -75 -95 -74 -71 -95 -85
-121 -85 -18 0 -65 -7 -104 -15 -40 -8 -75 -13 -80 -10 -5 3 -11 -1 -14 -7 -3
-7 -4 -4 -3 6 1 10 -4 21 -12 24 -10 3 -11 0 -5 -9 6 -11 5 -12 -7 -2 -9 8
-20 9 -29 3 -20 -13 -53 -13 -45 0 3 5 13 6 22 3 10 -4 14 -2 9 5 -3 6 -2 13
4 17 5 3 15 16 20 28 11 22 11 22 -5 2 -9 -11 -23 -19 -32 -17 -10 2 -12 -1
-7 -10 6 -10 4 -10 -9 1 -16 13 -16 14 -1 26 14 9 14 14 4 20 -9 5 -11 4 -6
-3 11 -17 -9 -15 -24 3 -7 8 -20 14 -29 13 -9 -2 -15 2 -14 8 1 6 -5 11 -12
11 -11 0 -12 -4 -4 -14 8 -9 8 -13 1 -13 -6 0 -14 5 -17 10 -8 14 -25 13 -25
-2 0 -6 3 -8 7 -5 3 4 12 2 19 -3 6 -6 16 -10 20 -8 15 4 51 -21 58 -39 6 -16
5 -16 -8 1 -9 10 -20 15 -27 10 -8 -5 -10 -3 -4 6 5 8 3 11 -6 8 -8 -3 -27 -1
-42 3 -22 6 -28 5 -24 -5 4 -9 0 -12 -13 -9 -17 5 -18 7 -4 21 13 12 13 16 2
23 -21 14 -32 10 -19 -5 10 -12 8 -13 -9 -9 -20 5 -20 7 -4 24 9 10 21 16 27
12 5 -3 7 -2 4 4 -16 25 124 104 214 122 64 13 186 13 255 0z m-956 -5 c0 -8
-19 -13 -24 -6 -3 5 1 9 9 9 8 0 15 -2 15 -3z m460 -181 c0 -14 -2 -15 -9 -4
-5 7 -14 10 -20 7 -6 -4 -11 -2 -11 3 0 6 9 11 20 11 12 0 20 -7 20 -17z m255
-81 c-3 -3 -11 0 -18 7 -9 10 -8 11 6 5 10 -3 15 -9 12 -12z m932 -76 c2 -2 0
-7 -6 -11 -6 -3 -11 0 -11 7 0 8 -5 6 -11 -4 -11 -20 -29 -24 -29 -7 0 5 5 7
10 4 6 -3 10 -2 10 4 0 5 -6 12 -12 15 -7 3 0 3 16 1 16 -2 30 -6 33 -9z
m-170 -86 c-1 -20 -33 -38 -44 -26 -4 3 1 6 9 6 9 0 18 9 21 20 7 26 16 26 14
0z m343 -13 c0 -2 -10 -12 -22 -23 l-23 -19 19 23 c18 21 26 27 26 19z m-114
-109 c5 4 -4 -8 -21 -27 -58 -65 -203 -182 -211 -170 -4 8 -3 9 4 5 7 -4 12
-1 12 8 0 9 4 16 9 16 18 0 72 53 67 65 -7 19 5 27 21 14 10 -9 13 -8 13 1 0
8 3 10 7 7 3 -4 11 3 18 16 6 12 17 21 23 20 7 -2 12 4 12 12 0 8 3 14 8 14
21 -4 24 3 6 17 -18 15 -18 15 2 5 12 -6 25 -7 30 -3z m-533 -51 c-3 -5 -10
-4 -15 1 -6 6 -7 16 -3 22 6 9 9 9 16 -1 4 -7 5 -17 2 -22z m32 23 c-3 -5 -10
-10 -16 -10 -5 0 -9 5 -9 10 0 6 7 10 16 10 8 0 12 -4 9 -10z m434 -316 c11 7
77 -64 145 -154 68 -90 173 -299 215 -427 114 -347 107 -742 -19 -1093 -108
-302 -261 -506 -517 -685 -12 -9 -9 -27 22 -125 39 -121 109 -279 145 -331 12
-16 20 -32 18 -35 -3 -2 -36 18 -75 45 -123 86 -223 214 -357 455 -36 65 -66
121 -66 125 0 4 15 12 33 19 44 16 158 93 230 155 174 150 305 393 369 684 30
133 32 425 5 553 -47 219 -135 408 -256 547 -44 50 -90 98 -101 106 -12 8 -17
18 -12 21 6 3 12 1 14 -6 3 -7 17 0 37 18 18 16 38 29 44 29 7 0 20 10 30 23
10 12 24 19 30 15 7 -4 8 0 3 12 -6 16 -4 16 11 4 11 -9 14 -10 9 -1 -4 7 -2
12 4 12 7 0 9 7 6 16 -5 13 -4 14 7 5 12 -9 14 -6 11 16 -2 16 -1 20 2 10 3
-9 9 -15 13 -13z m-4095 -206 c-3 -4 -9 -8 -15 -8 -5 0 -9 4 -9 8 0 5 7 9 15
9 8 0 12 -4 9 -9z m40 -56 c3 -5 -1 -9 -9 -9 -8 0 -12 4 -9 9 3 4 7 8 9 8 2 0
6 -4 9 -8z m3668 -34 c-32 -51 -102 -116 -143 -135 -21 -10 -39 -22 -39 -27 0
-5 30 -6 68 -2 37 3 118 9 181 13 l113 6 -12 -23 c-36 -66 -149 -160 -195
-160 -8 0 -15 -4 -15 -10 0 -6 36 -10 88 -10 81 -1 215 -20 228 -33 21 -21
-79 -108 -163 -142 -55 -23 -56 -24 -28 -30 119 -24 275 -82 275 -102 0 -26
-185 -112 -242 -113 -16 0 -28 -4 -28 -8 0 -5 12 -14 28 -21 58 -26 242 -133
242 -141 0 -4 -35 -21 -77 -36 -62 -23 -95 -29 -161 -29 l-83 0 28 -23 c15
-13 72 -57 127 -97 94 -71 97 -75 73 -84 -96 -37 -222 -44 -297 -18 -24 9 -45
15 -47 13 -1 -1 48 -52 110 -114 l113 -111 -49 -12 c-64 -15 -217 -6 -280 16
-26 10 -50 15 -53 13 -2 -3 43 -54 101 -113 57 -60 102 -111 99 -114 -3 -4
-54 -7 -112 -9 -116 -4 -213 13 -282 48 -53 27 -59 25 -28 -7 77 -84 159 -212
274 -429 26 -49 53 -96 61 -105 16 -20 17 -35 1 -22 -18 14 -198 93 -198 87 0
-7 224 -247 379 -406 74 -76 131 -138 127 -138 -4 0 -66 20 -139 44 -200 68
-274 80 -472 80 -123 0 -194 -5 -255 -17 -387 -80 -711 -299 -938 -634 -48
-71 -116 -203 -142 -275 l-19 -53 0 195 c0 239 13 456 29 475 6 8 9 19 5 25
-3 5 1 13 10 16 12 5 13 9 4 20 -14 17 -13 17 29 5 20 -6 30 -6 27 0 -4 5 -15
9 -25 9 -10 0 -22 5 -26 12 -5 8 -2 9 10 5 14 -6 15 -3 6 13 -9 17 -8 20 10
20 11 0 20 -5 20 -11 0 -5 -4 -7 -10 -4 -6 3 -7 -1 -4 -9 3 -9 10 -13 15 -10
6 3 16 1 24 -6 9 -8 15 -8 20 0 3 6 11 8 16 5 5 -4 9 -1 9 4 0 14 -17 14 -25
1 -10 -16 -37 10 -31 27 3 8 2 12 -3 9 -5 -3 -12 2 -15 11 -4 10 -4 15 -1 11
4 -3 17 0 31 7 13 7 40 11 58 8 43 -4 57 14 28 38 -19 15 -19 18 -6 23 9 3 14
12 11 19 -3 8 1 14 9 14 8 0 19 -15 26 -33 10 -27 15 -31 30 -23 10 5 17 13
17 17 -3 20 2 33 11 27 6 -3 10 -2 10 4 0 16 -17 22 -28 8 -5 -6 -8 -20 -7
-30 2 -9 -1 -15 -6 -11 -5 3 -7 10 -4 15 4 5 0 9 -7 10 -10 0 -10 2 -1 6 9 3
10 10 3 24 -8 15 -7 17 5 13 9 -4 15 -1 15 7 1 9 4 8 11 -3 5 -10 16 -18 24
-18 16 0 71 51 67 63 -1 4 6 7 15 5 11 -2 17 2 15 10 -1 8 2 11 8 7 13 -8 72
36 66 50 -2 6 8 10 23 10 16 0 25 5 23 13 -1 8 2 11 8 7 5 -3 23 3 39 14 16
12 32 21 36 21 4 0 24 10 44 22 19 12 44 24 54 25 32 5 58 23 50 36 -5 9 -4 9
8 0 19 -16 123 12 113 30 -5 9 -4 9 5 1 9 -8 25 -9 54 -2 112 25 407 3 504
-37 28 -12 33 -12 33 0 0 8 -49 88 -109 177 -109 162 -237 311 -337 393 l-49
40 28 -45 c31 -51 134 -250 148 -287 9 -23 7 -23 -37 9 -99 70 -194 160 -264
247 -40 50 -74 91 -76 91 -7 0 87 -216 117 -268 17 -30 24 -51 17 -46 -121 71
-223 173 -302 304 -24 40 -26 42 -20 15 13 -63 48 -162 78 -220 17 -33 33 -64
35 -69 2 -5 -18 6 -44 25 -82 59 -165 157 -207 244 l-39 80 6 -50 c9 -70 35
-174 52 -208 39 -77 -47 -8 -91 72 -34 63 -67 205 -67 289 0 201 1 209 17 209
7 0 10 -6 7 -13 -5 -13 116 -149 124 -140 2 2 -14 30 -37 62 -24 34 -39 66
-36 76 2 10 0 15 -5 12 -5 -3 -9 7 -8 23 1 15 -2 37 -6 47 -6 14 -5 17 3 12 8
-5 10 -2 5 10 -11 29 32 7 83 -43 47 -45 129 -103 147 -103 5 0 -17 23 -48 51
-50 47 -87 97 -84 115 0 4 -6 11 -15 16 -22 12 -20 29 2 22 13 -5 14 -4 3 4
-10 7 -11 14 -1 33 11 24 11 24 -10 -1 l-21 -25 12 28 c14 30 24 34 36 13 11
-19 153 -116 170 -116 8 0 28 -7 44 -16 59 -30 39 -6 -23 29 -60 34 -98 67
-98 86 0 5 -6 11 -12 14 -7 3 -21 20 -31 38 -19 34 -19 34 1 10 l19 -23 1 32
c0 18 2 33 4 35 2 2 32 -15 67 -36 106 -64 162 -81 286 -87 133 -5 200 7 296
55 136 68 244 198 292 348 28 91 31 281 4 364 -9 29 -14 58 -10 64 3 6 1 7 -5
3 -7 -4 -12 -3 -12 3 0 5 -3 17 -7 27 -5 13 -3 15 7 9 10 -6 12 -4 6 10 -5 15
-4 16 8 6 12 -10 13 -9 9 9 -3 12 2 28 12 40 9 10 14 24 9 31 -4 7 -3 10 4 5
6 -3 13 -2 16 3 4 5 2 12 -4 16 -21 13 -9 24 24 21 20 -1 34 2 33 8 -1 6 3 10
10 11 6 0 15 3 19 7 4 4 14 2 23 -5 14 -11 14 -10 2 6 -9 12 -17 14 -26 7 -6
-5 -15 -7 -18 -3 -11 10 -8 45 3 38 6 -4 7 -11 4 -17 -4 -7 -2 -8 4 -4 6 4 9
13 6 20 -3 9 6 16 28 20 18 4 51 11 73 15 68 14 69 14 47 -21z m-184 -54 c-1
-5 -9 -9 -16 -10 -10 -2 -11 1 -1 12 12 14 24 13 17 -2z m-81 -59 c0 -8 -4
-12 -9 -9 -4 3 -8 0 -8 -7 0 -7 -3 -9 -6 -6 -4 4 -1 13 6 22 15 19 17 19 17 0z
m-1698 -56 c-22 -13 -30 0 -11 19 14 14 18 15 20 3 2 -7 -2 -17 -9 -22z m1656
-29 c3 -6 -1 -7 -9 -4 -18 7 -21 14 -7 14 6 0 13 -4 16 -10z m-3015 -24 c-6
-6 -6 -14 1 -22 8 -10 6 -12 -8 -9 -11 2 -20 -2 -20 -10 0 -10 23 -13 35 -5 7
7 48 4 53 -3 3 -5 9 -2 12 6 4 11 0 15 -14 12 -10 -2 -19 0 -19 6 0 5 7 9 15
9 9 0 12 6 9 18 -5 14 -4 15 5 2 6 -8 17 -37 25 -65 66 -223 332 -267 475 -77
l33 44 24 -28 c13 -16 23 -23 24 -16 0 6 -4 12 -10 12 -5 0 -10 4 -10 10 0 5
7 7 15 4 8 -4 15 -12 15 -20 0 -8 6 -11 15 -8 11 5 13 2 8 -12 -4 -12 -3 -15
5 -10 40 24 -30 -116 -76 -154 -20 -17 -66 -45 -102 -63 -59 -29 -73 -32 -160
-32 -91 0 -100 2 -172 37 -90 45 -148 103 -190 194 -30 65 -45 165 -24 161 6
-1 10 6 8 15 -2 11 4 16 18 15 13 -1 16 -5 10 -11z m2824 -44 c58 -84 71 -130
71 -242 -1 -134 -23 -195 -102 -280 -189 -205 -512 -176 -662 59 -61 94 -30
115 61 42 35 -29 86 -63 114 -77 165 -81 349 -25 432 131 24 45 27 61 27 152
0 99 -1 102 -34 149 -31 45 -32 49 -16 59 10 5 27 20 38 32 24 27 38 22 71
-25z m-3346 -51 c19 -5 8 -10 -50 -24 -88 -22 -198 -62 -224 -82 -16 -12 -11
-12 31 1 138 42 344 59 428 35 26 -8 47 -18 47 -23 0 -5 4 -6 10 -3 5 3 17 -3
27 -14 13 -15 19 -17 25 -8 5 8 8 7 8 -4 0 -12 -32 -28 -117 -57 -112 -38
-280 -111 -258 -112 6 0 35 7 65 15 130 35 398 57 383 31 -4 -7 -2 -7 6 0 18
17 51 6 44 -14 -5 -14 -2 -14 18 3 l24 19 -20 -21 c-11 -12 -87 -58 -170 -103
-82 -45 -139 -79 -125 -76 14 4 81 20 150 36 69 15 151 38 183 49 32 11 55 15
51 9 -5 -7 1 -9 20 -4 15 4 26 2 26 -3 0 -6 16 -13 35 -17 19 -3 38 -10 41
-15 3 -5 16 -9 29 -9 13 0 30 -6 38 -14 9 -9 24 -12 37 -9 13 3 21 2 18 -3 -4
-5 34 -9 87 -9 52 0 91 4 88 9 -3 5 6 7 21 4 14 -3 26 -2 26 2 0 11 50 19 56
9 3 -5 11 -9 17 -9 7 0 6 4 -3 11 -13 9 -13 10 0 8 8 -1 22 1 32 5 10 5 38 -3
72 -19 60 -28 60 -27 19 -83 l-16 -23 37 21 c31 19 39 20 54 9 15 -12 16 -12
4 2 -10 14 -10 18 2 22 7 3 19 0 26 -6 10 -9 11 -7 5 10 -5 18 -3 22 9 17 9
-3 13 -10 10 -15 -3 -5 0 -9 5 -9 6 0 11 9 11 20 0 13 6 20 18 19 10 0 12 -3
5 -6 -7 -2 -13 -12 -13 -21 0 -10 3 -13 8 -7 11 15 39 17 48 4 4 -8 3 -9 -4
-5 -7 4 -12 4 -13 -1 0 -4 -2 -16 -4 -25 -2 -10 1 -20 5 -23 5 -3 7 4 5 15 -2
11 0 20 5 20 9 0 34 -58 33 -76 -1 -15 20 -12 41 5 19 16 18 17 21 -37 2 -36
-1 -42 -14 -37 -15 5 -15 4 0 -7 9 -7 16 -20 17 -28 4 -36 30 -219 37 -259 l7
-44 -28 22 c-202 156 -382 219 -599 207 -129 -6 -200 -24 -312 -76 -98 -45
-160 -87 -230 -153 -59 -55 -71 -82 -20 -43 17 13 45 30 61 36 24 9 27 8 22
-5 -3 -10 -2 -13 5 -10 6 4 20 -1 31 -12 15 -12 19 -13 13 -3 -6 12 -5 13 5 3
11 -10 11 -15 0 -28 -17 -21 -6 -19 16 3 17 16 17 16 11 0 -3 -10 -2 -20 4
-23 5 -4 7 -10 4 -15 -8 -14 34 -19 119 -14 138 7 163 7 174 0 6 -3 13 0 15 6
3 7 6 4 6 -7 1 -16 3 -17 10 -6 8 12 13 12 35 -3 14 -9 26 -12 26 -6 0 15 31
12 65 -6 41 -22 77 -23 98 -5 10 8 18 11 17 6 -2 -6 -2 -19 -1 -29 1 -19 1
-19 23 0 12 10 18 14 15 8 -4 -7 0 -15 9 -18 9 -4 13 -2 8 5 -4 8 0 7 15 0 25
-14 28 -33 4 -25 -14 5 -15 4 -4 -4 20 -14 41 -4 34 16 -5 14 -4 14 8 -1 8
-10 24 -19 36 -20 12 0 21 -4 21 -7 -2 -20 4 -30 17 -30 8 0 15 -4 15 -8 0 -5
-33 0 -72 10 -114 29 -296 26 -420 -6 -167 -43 -327 -129 -439 -237 -45 -42
-48 -47 -19 -29 73 45 198 100 280 124 135 38 236 52 256 35 8 -7 14 -7 18 0
4 5 19 7 34 4 15 -3 35 -6 45 -7 33 -1 17 -13 -80 -57 -243 -110 -458 -303
-573 -514 l-33 -60 33 40 c109 132 263 254 423 336 l99 51 24 -23 c19 -18 26
-20 39 -9 12 10 15 10 15 -3 0 -8 -24 -33 -52 -54 -84 -61 -99 -74 -178 -156
-132 -138 -233 -295 -295 -462 -14 -36 -23 -65 -21 -65 2 0 22 30 45 68 61
101 159 218 267 321 66 62 102 90 113 86 8 -3 12 -3 9 1 -7 6 39 49 53 49 4 0
11 3 14 7 4 4 17 2 29 -4 18 -10 19 -9 8 4 -10 13 -10 17 3 22 11 4 14 2 10
-7 -4 -6 3 -1 15 13 18 21 20 22 11 4 -8 -17 -7 -25 4 -34 8 -7 15 -15 15 -19
-1 -3 -26 -33 -56 -66 -103 -112 -215 -295 -271 -444 -21 -57 -55 -181 -49
-181 1 0 21 37 44 83 76 149 296 427 325 411 7 -4 9 -4 5 0 -4 5 7 23 24 41
31 35 31 35 87 6 14 -8 21 -8 16 -2 -3 6 -2 11 4 11 6 0 8 8 5 18 -5 16 -5 16
6 -1 6 -9 15 -15 21 -12 5 4 9 1 9 -5 0 -7 -7 -9 -16 -6 -12 5 -15 2 -10 -10
6 -16 -29 -71 -36 -57 -3 5 -3 2 -2 -5 2 -7 -26 -63 -61 -125 -69 -119 -125
-260 -146 -367 -10 -54 -20 -74 -61 -121 -172 -198 -268 -565 -237 -905 4 -44
2 -74 -5 -83 -9 -12 -8 -13 3 -6 11 6 13 2 9 -19 -3 -14 -1 -26 4 -26 5 0 6
-10 3 -21 -5 -14 -2 -25 6 -30 11 -7 10 -9 -3 -9 -14 0 -17 -7 -15 -34 1 -19
5 -32 10 -29 4 2 7 -2 7 -10 0 -10 -7 -13 -20 -10 -14 4 -20 0 -20 -12 0 -13
3 -15 13 -7 18 15 39 -1 31 -23 -6 -14 -4 -16 6 -10 8 5 11 4 7 -2 -3 -5 0
-22 8 -37 8 -14 10 -24 5 -21 -5 3 -11 1 -15 -5 -3 -5 -1 -10 4 -10 6 0 11 -5
11 -11 0 -5 -4 -7 -10 -4 -6 3 -7 -1 -4 -9 3 -9 11 -13 17 -9 6 3 7 1 3 -6 -4
-6 0 -14 8 -17 9 -3 13 -11 10 -16 -4 -6 -10 -5 -16 3 -8 11 -9 11 -5 -1 2 -8
10 -14 17 -12 26 6 41 -20 36 -65 -4 -36 -2 -42 9 -33 10 8 15 8 21 -1 4 -7 3
-9 -2 -6 -6 3 -16 -4 -24 -16 -12 -19 -11 -21 2 -10 17 15 28 7 28 -19 0 -10
7 -21 15 -24 8 -4 12 -11 9 -16 -4 -6 6 -21 22 -35 16 -14 29 -30 29 -36 1 -7
6 -11 13 -10 7 2 11 -3 9 -10 -1 -6 3 -11 10 -10 6 1 17 -5 25 -15 12 -16 11
-16 -6 -2 -18 14 -19 13 -12 -5 5 -16 2 -15 -21 8 -15 15 -55 53 -87 85 -167
162 -276 345 -365 611 -60 178 -76 298 -75 561 0 179 4 252 16 305 29 127 29
131 -3 65 -65 -138 -111 -368 -114 -576 -1 -61 -5 -116 -9 -122 -4 -7 -3 -12
2 -12 5 0 8 -27 7 -61 0 -33 3 -65 7 -71 3 -7 2 -20 -3 -30 -6 -12 -6 -18 0
-18 6 0 7 -7 4 -17 -5 -12 -3 -14 7 -8 8 5 11 4 7 -2 -8 -12 37 -172 63 -226
29 -60 -2 -27 -66 70 -96 144 -175 350 -221 574 -13 63 -17 135 -17 294 0 190
3 222 27 337 29 138 81 291 127 376 17 31 28 57 25 60 -10 10 -155 -151 -213
-238 -86 -129 -145 -255 -186 -398 -46 -157 -60 -267 -54 -427 l5 -130 -19 70
c-63 245 -63 557 2 810 24 95 30 131 17 114 -34 -43 -117 -182 -148 -246 -22
-46 -43 -82 -47 -79 -4 2 -7 -9 -8 -26 -1 -37 -24 -79 -38 -71 -6 4 -5 0 2 -9
10 -13 8 -29 -12 -91 -13 -42 -21 -79 -17 -83 3 -4 1 -4 -5 -1 -7 4 -11 -9
-11 -36 0 -47 -10 -107 -18 -115 -2 -3 0 -11 6 -18 7 -8 7 -14 -1 -19 -6 -3
-8 -10 -6 -14 3 -4 7 -34 10 -66 3 -33 8 -76 11 -95 l6 -35 -16 28 c-26 46
-83 228 -102 329 -25 135 -25 508 0 628 44 207 125 400 247 588 33 51 52 88
42 83 -49 -27 -266 -305 -303 -388 -7 -18 -17 -33 -21 -33 -5 0 -8 -6 -8 -14
0 -8 -7 -22 -16 -30 -8 -9 -12 -16 -8 -16 4 0 -1 -10 -12 -22 -10 -12 -13 -18
-6 -14 10 6 10 2 0 -21 -7 -15 -15 -30 -19 -33 -3 -3 -9 -23 -12 -45 -3 -22
-10 -67 -16 -100 -5 -33 -12 -95 -16 -138 -4 -43 -8 -77 -10 -75 -2 2 -8 60
-14 130 -26 281 31 581 159 843 123 252 346 488 550 583 30 14 50 27 44 29
-21 7 -211 -48 -281 -81 -39 -19 -100 -54 -135 -77 -93 -63 -254 -230 -329
-341 -36 -54 -69 -95 -73 -91 -3 3 -6 -1 -6 -10 0 -9 -16 -48 -36 -87 -19 -39
-46 -99 -59 -133 -20 -51 -24 -57 -24 -32 -1 50 26 185 52 260 66 194 119 289
236 429 180 215 340 327 581 408 l85 28 -55 -5 c-210 -22 -390 -89 -532 -198
-21 -16 -43 -25 -49 -21 -7 4 -9 3 -6 -3 3 -5 -30 -45 -74 -88 -43 -44 -79
-77 -79 -74 0 25 97 243 140 314 76 126 213 266 326 332 125 74 127 76 49 47
-148 -53 -294 -158 -445 -318 -41 -44 -87 -93 -102 -108 -15 -16 -27 -30 -26
-31 1 -1 -31 -50 -70 -109 -40 -59 -72 -112 -72 -118 0 -6 -5 -18 -10 -28 -6
-9 -24 -51 -40 -92 -33 -86 -37 -72 -20 70 49 397 225 738 491 953 112 90 293
175 421 196 62 10 233 12 266 2z m3227 -26 c14 -13 25 -33 25 -45 0 -29 -44
-70 -75 -70 -57 0 -85 74 -45 118 27 29 65 28 95 -3z m-1283 -241 l3 -207 47
-12 c98 -25 166 -97 207 -222 28 -84 28 -106 -1 -67 -26 34 -108 110 -108 100
0 -4 22 -44 50 -89 27 -45 64 -122 81 -172 26 -76 32 -109 36 -215 3 -70 1
-156 -5 -195 -11 -70 -62 -248 -69 -242 -2 2 5 42 16 88 15 63 17 86 8 91 -9
6 -9 8 1 8 6 0 12 9 12 20 0 11 -5 20 -11 20 -8 0 -8 5 1 15 10 12 10 15 -1
15 -11 0 -11 2 1 10 11 7 12 10 2 10 -8 0 -12 6 -9 13 2 6 1 19 -4 27 -4 9
-10 36 -14 60 -4 25 -9 47 -11 49 -2 2 2 11 9 19 9 13 9 14 0 8 -9 -5 -13 0
-13 15 0 12 -3 19 -7 15 -8 -8 -10 -19 -18 -106 -4 -36 -9 -73 -11 -83 -3 -10
-7 -32 -9 -50 -3 -18 -7 -54 -10 -82 -40 -335 -121 -783 -146 -809 -13 -14
-18 -4 -21 37 -2 20 -7 37 -12 37 -4 0 -6 11 -4 25 3 13 2 22 -3 20 -9 -6 -23
51 -15 64 4 5 0 11 -6 14 -10 3 -9 8 2 22 8 10 10 16 4 12 -16 -9 -21 8 -44
128 -19 101 -62 408 -59 422 1 4 -2 17 -6 27 -6 13 -4 21 3 24 7 2 12 8 12 13
0 6 -4 8 -9 5 -4 -3 -14 22 -21 57 -7 34 -14 70 -17 81 -4 13 -1 16 8 11 11
-6 12 -5 2 6 -7 7 -13 17 -13 22 0 4 6 5 13 1 6 -4 4 1 -5 12 -14 16 -15 23
-5 34 9 10 9 11 0 6 -9 -5 -13 4 -14 31 -2 77 -4 93 -14 93 -5 0 -11 -11 -13
-25 -2 -16 -8 -23 -15 -19 -8 5 -8 3 1 -7 17 -18 15 -29 -5 -30 -11 0 -13 -3
-5 -6 6 -2 12 -14 12 -24 0 -14 -4 -18 -12 -13 -9 5 -9 2 1 -9 11 -14 11 -17
0 -17 -9 0 -10 -3 -4 -8 13 -9 14 -85 1 -94 -8 -5 -7 -8 1 -8 7 0 10 -10 7
-27 -8 -42 -8 -52 5 -137 6 -44 10 -81 8 -83 -7 -6 -35 106 -52 201 -48 281
-26 443 95 688 63 130 74 170 55 214 -17 40 -44 56 -84 48 -36 -7 -80 -55 -82
-87 -3 -45 3 -92 14 -106 9 -11 9 -13 1 -8 -7 4 -14 0 -18 -8 -3 -8 -1 -15 4
-15 5 0 8 -13 8 -30 -1 -16 -5 -27 -9 -25 -4 3 -9 0 -12 -7 -2 -7 -3 -5 -2 4
2 10 -6 20 -17 24 -20 6 -21 12 -15 133 6 156 35 255 96 336 51 67 130 112
203 114 l28 1 2 -206z m-782 -115 c0 -6 -4 -7 -10 -4 -5 3 -10 11 -10 16 0 6
5 7 10 4 6 -3 10 -11 10 -16z m289 -76 c-5 -29 3 -42 21 -38 11 2 18 0 15 -5
-3 -5 -15 -7 -26 -5 -15 3 -19 0 -15 -10 3 -8 3 -15 0 -15 -11 0 -21 46 -12
63 9 17 19 23 17 10z m178 -215 c-3 -8 -6 -5 -6 6 -1 11 2 17 5 13 3 -3 4 -12
1 -19z m3251 -66 c85 -183 140 -403 147 -590 l5 -117 -15 64 c-31 135 -79 271
-141 400 l-65 134 7 98 c3 55 10 99 14 99 4 0 25 -39 48 -88z m-3713 -132 c86
-24 217 -88 267 -130 45 -38 87 -93 67 -89 -8 2 -23 0 -35 -4 -14 -5 -46 6
-107 38 -48 25 -87 43 -87 41 0 -3 -24 3 -54 14 -79 27 -219 48 -406 60 -90 6
-166 12 -168 15 -12 11 131 63 212 76 78 12 232 2 311 -21z m321 -247 c-10
-10 -19 5 -10 18 6 11 8 11 12 0 2 -7 1 -15 -2 -18z m37 -19 c4 -23 3 -24 -10
-11 -9 8 -12 20 -9 26 10 16 13 14 19 -15z m3304 -168 c59 -168 88 -381 88
-646 0 -230 -13 -345 -60 -540 -26 -103 -83 -269 -116 -330 l-19 -35 6 65 c13
141 -33 504 -87 680 -11 38 -18 74 -14 80 3 5 1 10 -4 10 -6 0 -11 5 -11 11 0
5 4 8 9 4 13 -7 30 25 24 45 -4 13 -3 13 6 0 6 -8 11 -11 11 -6 0 5 6 3 13 -3
8 -6 17 -8 20 -4 4 3 7 1 7 -5 0 -7 4 -12 10 -12 5 0 7 6 4 14 -3 8 -1 17 4
20 14 8 43 -4 36 -15 -3 -5 2 -6 10 -3 22 8 20 24 -2 24 -10 0 -27 7 -38 15
-18 13 -17 14 11 12 l30 -2 -2 80 c-1 44 -11 122 -22 174 -11 51 -18 97 -15
102 3 5 1 9 -4 9 -15 0 -23 61 -11 76 11 13 6 18 -13 15 -16 -2 -7 15 12 27
12 7 18 17 15 21 -2 5 2 12 11 15 8 3 12 2 9 -4 -3 -6 -2 -10 2 -10 16 0 33
23 33 44 0 15 3 17 11 9 18 -18 -20 -74 -46 -68 -11 3 -15 2 -9 -1 7 -3 10
-13 7 -23 -3 -10 1 -22 8 -26 8 -5 10 -4 5 3 -4 7 0 12 11 13 16 0 16 1 -2 9
-11 5 -15 9 -8 9 6 1 20 16 32 34 21 32 30 22 11 -14 -7 -13 -7 -19 0 -19 5 0
10 5 10 11 0 5 5 7 10 4 12 -8 12 1 0 45 -5 19 -12 49 -15 67 -3 17 -14 60
-25 95 -11 34 -19 68 -19 73 1 15 38 -69 66 -149z m-3487 80 c0 -2 -9 -2 -20
1 -11 3 -20 9 -20 15 0 5 9 4 20 -2 11 -6 20 -12 20 -14z m3424 -132 c3 -8 2
-12 -4 -9 -6 3 -10 10 -10 16 0 14 7 11 14 -7z m-3859 -154 c4 -6 -1 -7 -12
-3 -16 6 -16 5 -4 -10 7 -9 9 -17 3 -17 -14 0 -33 25 -25 33 10 10 31 8 38 -3z
m84 -220 c6 8 12 12 15 10 2 -3 -2 -14 -10 -24 -11 -16 -16 -17 -29 -6 -8 7
-12 17 -9 22 4 6 10 5 15 -3 8 -12 11 -12 18 1z m101 -166 c0 -2 -11 -4 -25
-4 -14 0 -25 4 -25 9 0 4 11 6 25 3 14 -2 25 -6 25 -8z m3665 -3 c3 -5 0 -13
-6 -17 -7 -4 -9 -3 -5 4 3 5 0 13 -6 15 -9 4 -10 6 -1 6 6 1 14 -3 18 -8z
m-145 -48 c24 -21 26 -40 5 -40 -12 0 -12 3 -2 16 10 12 9 14 -8 7 -11 -4 -16
-4 -12 0 4 4 2 13 -4 21 -16 19 -3 16 21 -4z m100 -3 c0 -10 -27 -7 -37 5 -4
4 -2 5 5 1 6 -4 12 -2 12 4 0 6 5 8 10 5 6 -3 10 -10 10 -15z m-3465 -98 c-3
-3 -11 0 -18 7 -9 10 -8 11 6 5 10 -3 15 -9 12 -12z m-8 -32 c11 0 13 -3 5
-13 -7 -8 -6 -18 5 -32 16 -20 16 -20 9 0 -6 20 -6 20 9 1 11 -15 15 -16 15
-5 0 8 -4 20 -10 27 -5 7 -3 6 6 -2 15 -13 14 -21 -14 -88 -69 -171 -117 -473
-92 -578 5 -22 8 -27 9 -13 2 41 60 248 89 318 61 146 94 206 108 194 8 -6 11
-16 7 -23 -4 -6 1 -5 10 3 15 12 17 11 18 -5 0 -11 3 -14 6 -6 2 6 9 9 14 6 6
-3 5 -11 -2 -20 -9 -12 -15 -12 -28 -2 -14 12 -15 11 -2 -5 14 -17 15 -17 35
4 15 15 17 23 9 26 -7 3 -13 11 -13 20 0 8 -7 21 -15 29 -12 13 -15 13 -15 2
0 -8 5 -19 11 -25 9 -9 7 -11 -7 -9 -12 2 -18 10 -16 21 2 11 -1 15 -10 10 -7
-3 -4 1 7 10 11 9 19 21 17 27 -2 7 3 7 12 -1 9 -7 14 -18 13 -24 -1 -7 4 -11
11 -9 8 1 11 -2 8 -7 -4 -5 -1 -13 6 -18 14 -8 21 -43 9 -43 -4 0 -6 -15 -5
-32 1 -18 -6 -75 -17 -127 -22 -106 -25 -258 -8 -395 15 -119 28 -151 28 -70
2 113 46 377 76 449 19 46 46 102 41 84 -4 -16 31 -45 50 -41 7 1 14 -5 18
-13 3 -9 2 -13 -3 -10 -5 3 -13 0 -17 -6 -5 -8 -3 -9 6 -4 10 6 12 4 7 -9 -4
-9 -3 -15 2 -11 5 3 11 2 14 -2 2 -5 2 -3 1 4 -2 7 1 15 5 17 5 3 9 -34 10
-82 4 -181 28 -348 67 -474 26 -82 41 -103 30 -42 -7 34 -8 314 -2 364 2 14 4
42 5 63 1 33 3 37 20 28 15 -8 20 -6 29 14 7 14 17 25 24 25 9 0 8 -3 -2 -10
-13 -8 -9 -13 10 -12 3 0 5 -15 4 -34 -2 -28 2 -34 18 -34 10 0 16 -4 13 -10
-3 -6 1 -7 9 -4 12 5 16 0 16 -19 0 -13 7 -44 15 -67 13 -36 15 -130 15 -609
l-1 -566 -30 35 c-118 135 -210 334 -241 522 l-12 72 -18 -55 c-39 -112 -51
-191 -52 -339 0 -80 6 -179 13 -220 20 -111 20 -113 2 -135 -15 -18 -15 -19 1
-6 15 11 19 10 29 -15 6 -16 18 -45 26 -64 8 -19 16 -42 18 -50 7 -35 11 -44
23 -59 8 -9 29 -40 47 -69 45 -70 19 -55 -76 46 -98 102 -149 177 -219 326
-104 220 -140 364 -149 606 l-6 165 -25 -95 c-22 -85 -25 -116 -25 -287 0
-105 3 -189 6 -187 10 6 22 -103 13 -118 -4 -7 -3 -9 2 -5 4 4 13 -11 19 -35
7 -29 7 -45 0 -50 -6 -5 -5 -8 3 -8 7 0 11 -4 8 -9 -4 -5 -1 -11 4 -13 6 -2
12 -13 13 -26 0 -12 5 -22 9 -22 4 0 8 -7 8 -15 0 -8 16 -45 35 -82 l35 -68
-45 50 c-59 65 -154 203 -194 284 -46 91 -107 280 -127 391 -18 101 -24 318
-12 435 l7 70 -29 -60 c-16 -33 -39 -100 -52 -150 -20 -79 -23 -114 -23 -295
0 -184 2 -213 23 -284 12 -43 21 -80 19 -82 -7 -8 -65 130 -95 226 -17 53 -40
147 -52 210 -20 101 -22 136 -17 310 3 129 11 220 22 269 19 86 127 366 187
485 50 101 128 217 139 210 5 -3 6 1 4 9 -3 7 5 19 19 27 14 7 23 17 20 22 -3
4 -2 13 2 19 5 8 10 6 16 -5 5 -9 16 -16 25 -16z m3179 -28 c4 -22 3 -32 -5
-32 -7 0 -10 4 -7 9 3 4 1 23 -4 41 -6 22 -6 30 0 24 5 -5 13 -24 16 -42z
m-1896 2 c0 -8 -19 -13 -24 -6 -3 5 1 9 9 9 8 0 15 -2 15 -3z m1916 -40 c-4
-16 -3 -23 3 -20 20 13 68 -197 92 -398 19 -156 -4 -377 -57 -566 -22 -77
-151 -356 -161 -347 -2 2 4 49 13 103 21 131 14 362 -17 529 -12 66 -23 132
-23 147 -1 14 -4 24 -7 22 -4 -2 -6 7 -5 21 1 29 17 32 52 9 13 -9 27 -14 31
-11 3 4 15 2 26 -4 14 -8 18 -8 13 0 -4 6 -2 11 4 11 6 0 8 5 4 11 -5 8 -9 8
-14 -1 -6 -9 -12 -10 -26 -1 -11 6 -16 11 -11 12 4 1 12 3 17 4 6 1 13 3 18 4
4 1 0 6 -8 11 -9 6 -10 10 -3 10 6 0 15 -6 19 -12 6 -9 11 -5 16 12 6 20 7 19
3 -7 -2 -18 0 -33 5 -33 17 0 15 224 -4 358 -8 62 -9 95 -2 102 7 7 6 10 -2
10 -7 0 -12 5 -12 11 0 5 4 8 9 4 5 -3 12 4 16 15 9 29 18 25 11 -6z m-2003 0
c12 -12 -4 -30 -28 -29 -28 2 -48 15 -22 15 10 0 17 5 17 10 0 11 23 14 33 4z
m-102 -31 c13 -16 12 -17 -3 -4 -10 7 -18 15 -18 17 0 8 8 3 21 -13z m73 -18
c-7 -16 -24 -21 -24 -6 0 8 7 13 27 20 1 1 0 -6 -3 -14z m-190 -63 c2 -4 -5
-9 -17 -9 -17 -2 -19 0 -7 7 18 12 18 12 24 2z m56 -42 c0 -5 -7 -7 -15 -4 -8
4 -15 8 -15 10 0 2 7 4 15 4 8 0 15 -4 15 -10z m-43 -6 c-3 -3 -12 -4 -19 -1
-8 3 -5 6 6 6 11 1 17 -2 13 -5z m-619 -96 c-2 -7 3 -12 10 -10 6 1 12 -2 12
-8 0 -5 -4 -10 -9 -10 -13 0 -32 26 -24 33 10 10 13 8 11 -5z m191 -169 c-8
-15 -8 -19 0 -15 6 4 11 0 11 -9 0 -9 -6 -15 -12 -13 -18 6 -22 39 -6 49 19
13 20 11 7 -12z m2281 -157 c49 -164 63 -268 57 -427 -6 -152 -22 -241 -68
-380 -60 -178 -154 -338 -276 -464 l-63 -66 25 59 c73 168 109 371 110 616 0
96 -3 203 -7 238 -5 40 -3 62 3 62 6 0 8 -4 5 -8 -2 -4 -1 -14 5 -22 6 -11 9
-7 10 15 1 17 1 34 0 38 -1 5 3 6 8 3 5 -4 8 -18 5 -31 -2 -14 0 -25 6 -25 5
0 9 3 9 8 -4 26 1 34 16 22 18 -15 20 -35 3 -24 -6 4 -8 3 -4 -4 3 -5 1 -12
-5 -14 -7 -2 -5 -9 5 -17 14 -12 16 -12 10 4 -5 12 -4 16 3 12 16 -10 25 23
12 40 -7 7 -9 16 -6 20 4 3 9 -2 13 -11 3 -9 10 -13 15 -10 5 3 6 -3 2 -13 -3
-10 -3 -15 2 -11 12 11 35 -11 28 -28 -3 -8 0 -14 6 -14 16 0 18 339 2 467 -4
34 -4 60 -1 58 3 -2 12 0 20 6 11 6 12 9 2 9 -7 0 -10 5 -6 11 10 17 21 -7 54
-119z m220 124 c0 -11 -19 -15 -25 -6 -3 5 1 10 9 10 9 0 16 -2 16 -4z m-2420
-47 c0 -6 -4 -7 -10 -4 -5 3 -10 11 -10 16 0 6 5 7 10 4 6 -3 10 -11 10 -16z
m1710 -149 c0 -5 -5 -10 -11 -10 -5 0 -7 5 -4 10 3 6 8 10 11 10 2 0 4 -4 4
-10z m20 -58 c0 -6 -6 -13 -12 -15 -9 -4 -7 -6 3 -6 21 -1 54 -136 70 -281 42
-383 -72 -760 -327 -1081 -48 -60 -172 -179 -187 -179 -4 0 8 24 27 53 153
240 236 564 236 930 0 123 2 137 18 138 10 0 12 3 5 6 -7 2 -13 9 -13 14 0 6
4 8 9 5 4 -3 7 6 5 21 -2 16 1 22 7 16 6 -6 11 -20 12 -32 1 -23 28 -26 33 -3
1 7 0 8 -3 2 -5 -12 -23 -4 -23 11 0 12 47 12 55 -1 3 -5 1 -10 -4 -10 -6 0
-11 -5 -11 -11 0 -5 5 -7 10 -4 6 3 10 0 10 -7 0 -9 3 -9 10 2 8 12 12 13 19
2 6 -11 10 -10 15 3 10 26 14 270 7 365 -4 47 -6 88 -4 93 5 9 33 -18 33 -31z
m-441 -209 c-7 -7 -15 -11 -18 -7 -3 4 0 9 7 11 6 3 9 9 6 14 -3 6 -11 5 -20
-2 -9 -7 -14 -8 -14 -1 0 15 23 21 38 9 9 -7 9 -13 1 -24z m694 12 c-7 -21
-12 -19 -10 4 0 11 5 18 9 15 4 -3 5 -11 1 -19z m-687 -29 c11 4 16 4 13 0 -4
-4 -1 -27 6 -50 22 -71 38 -273 32 -381 -28 -459 -281 -892 -667 -1140 l-45
-28 36 44 c105 128 185 289 255 511 41 130 84 321 84 373 0 13 8 29 18 34 10
6 12 11 4 11 -8 0 -11 10 -8 28 2 15 5 33 5 40 1 6 6 12 12 12 5 0 8 -4 4 -9
-3 -5 -2 -12 3 -15 4 -2 8 6 8 19 0 15 -5 21 -13 18 -7 -3 -13 0 -13 5 0 6 12
9 26 6 19 -3 24 -1 18 8 -4 7 2 5 14 -6 12 -10 19 -22 17 -27 -3 -4 -1 -10 4
-14 5 -3 8 -14 6 -25 -2 -12 0 -18 5 -15 5 3 7 16 4 30 -2 13 0 27 6 30 6 4 8
10 5 15 -3 5 -1 12 5 15 6 4 10 3 9 -2 -3 -20 2 -25 16 -13 13 11 14 10 9 -4
-3 -9 -15 -16 -27 -16 -11 0 -17 -3 -13 -7 4 -5 11 -7 14 -6 4 1 15 -5 24 -14
20 -18 20 -19 37 67 26 132 40 264 42 388 1 106 4 131 14 122 7 -6 21 -7 31
-4z m831 -21 c0 -8 -4 -12 -9 -9 -4 3 -8 9 -8 15 0 5 4 9 8 9 5 0 9 -7 9 -15z
m-462 -139 c21 -23 21 -25 4 -29 -11 -3 -17 -1 -14 3 8 12 -6 41 -16 34 -5 -3
-9 0 -9 5 0 17 11 13 35 -13z m-924 -69 c-10 -9 -11 -8 -5 6 3 10 9 15 12 12
3 -3 0 -11 -7 -18z m70 -11 c-11 -15 -10 -77 2 -69 5 3 7 16 4 30 -3 14 -1 21
4 16 13 -13 17 -168 8 -283 -23 -271 -128 -554 -282 -763 -83 -114 -245 -272
-348 -340 -47 -31 -89 -57 -93 -57 -4 0 -6 97 -6 216 l1 216 67 102 c37 56 80
129 96 163 22 46 34 62 47 60 10 -2 22 -6 25 -10 4 -4 12 -7 18 -7 12 1 -24
24 -36 25 -5 0 -8 5 -8 10 1 6 12 9 26 8 17 -2 28 5 35 21 8 17 17 22 32 18
15 -4 18 -2 12 8 -5 9 -4 11 4 6 6 -4 9 -12 6 -17 -4 -5 1 -9 9 -9 8 0 18 5
22 11 4 8 9 7 15 -2 14 -22 10 -33 -6 -19 -13 11 -14 10 -9 -6 6 -15 4 -17 -6
-7 -7 6 -18 9 -25 7 -7 -3 -16 -1 -20 5 -10 17 -25 13 -18 -5 3 -9 15 -14 32
-12 21 2 25 -1 23 -17 -4 -20 -4 -20 11 0 9 11 19 17 23 12 4 -4 2 -7 -5 -7
-7 0 -9 -4 -6 -10 4 -6 11 -5 19 3 8 6 11 16 8 21 -3 5 0 6 6 2 15 -9 16 6 1
21 -13 13 -4 33 14 33 8 0 8 -3 -1 -9 -11 -6 -10 -10 3 -15 16 -6 16 -8 1 -30
-14 -22 -14 -25 0 -37 9 -7 20 -22 25 -34 9 -19 9 -19 5 3 -2 12 0 22 6 22 5
0 6 4 3 10 -4 6 1 7 11 3 14 -5 16 -2 12 15 -4 12 -2 20 2 17 23 -14 140 406
140 501 0 13 4 24 8 24 5 0 7 26 5 58 -2 36 0 52 6 43 7 -11 11 -9 21 9 11 20
10 21 -10 15 -21 -7 -21 -6 -3 15 15 17 19 18 21 5 5 -21 15 -19 30 5 11 18
10 20 -10 20 -18 0 -20 2 -8 10 18 11 44 -8 31 -24z m-2096 -406 c3 -5 1 -10
-4 -10 -6 0 -11 5 -11 10 0 6 2 10 4 10 3 0 8 -4 11 -10z m1792 -166 c-3 -3
-12 -4 -19 -1 -8 3 -5 6 6 6 11 1 17 -2 13 -5z m37 -70 c3 -8 2 -12 -4 -9 -6
3 -10 10 -10 16 0 14 7 11 14 -7z m-208 -9 c-4 -24 -16 -30 -16 -7 0 12 4 22
9 22 5 0 8 -7 7 -15z m27 -10 c-7 -21 -13 -19 -13 6 0 11 4 18 10 14 5 -3 7
-12 3 -20z m-1098 -1144 c28 -16 61 -41 75 -56 l25 -27 -50 -43 -50 -44 -25
23 c-52 49 -85 56 -120 28 -35 -28 -20 -51 92 -144 125 -102 158 -150 158
-228 0 -109 -68 -178 -182 -187 -39 -3 -80 -1 -103 7 -71 23 -166 131 -134
151 8 5 33 20 56 34 l41 25 22 -30 c23 -33 68 -60 98 -60 31 0 72 38 72 67 0
27 -15 43 -154 166 -42 38 -85 86 -96 108 -80 156 113 304 275 210z m983 -5
c71 -36 137 -104 170 -174 23 -49 27 -70 27 -152 0 -89 -3 -99 -34 -158 -39
-72 -88 -119 -163 -159 -48 -25 -63 -28 -153 -28 -87 0 -107 3 -157 27 -111
52 -192 164 -204 283 -18 168 79 319 241 378 75 27 202 19 273 -17z m-2510 -9
c56 -37 82 -90 82 -168 0 -76 -31 -135 -84 -164 -20 -11 -36 -23 -36 -28 0 -5
34 -71 75 -146 41 -76 75 -141 75 -145 0 -4 -33 -6 -72 -4 l-73 3 -75 139 -75
139 -3 -141 -3 -142 -69 0 -70 0 0 346 0 346 143 -3 c137 -4 146 -6 185 -32z
m872 -32 l0 -65 -125 0 -125 0 0 -60 0 -60 125 0 125 0 0 -65 0 -65 -125 0
-125 0 0 -90 0 -90 125 0 125 0 0 -65 0 -65 -190 0 -190 0 0 345 0 345 190 0
190 0 0 -65z m2504 -157 l141 -217 3 219 2 220 70 0 70 0 0 -345 0 -345 -67 0
-68 0 -140 217 -140 216 -3 -216 -2 -217 -70 0 -70 0 0 345 0 346 67 -3 67 -3
140 -217z m826 -123 l0 -345 -65 0 -65 0 0 345 0 345 65 0 65 0 0 -345z m552
233 l3 -113 88 113 88 112 80 0 c43 0 79 -2 79 -5 0 -3 -52 -70 -115 -150 -63
-79 -115 -147 -115 -151 0 -5 225 -336 253 -371 7 -10 -8 -13 -71 -13 l-80 0
-103 151 -104 151 -3 -151 -3 -151 -64 0 -65 0 0 345 0 345 65 0 64 0 3 -112z"/>
<path d="M3470 6936 c0 -2 7 -7 16 -10 8 -3 12 -2 9 4 -6 10 -25 14 -25 6z"/>
<path d="M3515 6930 c3 -5 8 -10 11 -10 2 0 4 5 4 10 0 6 -5 10 -11 10 -5 0
-7 -4 -4 -10z"/>
<path d="M5375 6821 c-3 -5 -2 -12 3 -15 5 -3 9 1 9 9 0 17 -3 19 -12 6z"/>
<path d="M5570 8386 c0 -2 7 -9 15 -16 9 -7 15 -8 15 -2 0 5 -7 12 -15 16 -8
3 -15 4 -15 2z"/>
<path d="M7561 7641 c-9 -6 -10 -11 -2 -15 6 -4 11 -2 11 4 0 6 5 8 12 4 7 -4
8 -3 4 4 -8 14 -7 14 -25 3z"/>
<path d="M7445 7580 c3 -5 8 -10 11 -10 2 0 4 5 4 10 0 6 -5 10 -11 10 -5 0
-7 -4 -4 -10z"/>
<path d="M7437 7559 c7 -7 15 -10 18 -7 3 3 -2 9 -12 12 -14 6 -15 5 -6 -5z"/>
<path d="M7320 7506 c0 -2 8 -10 18 -17 15 -13 16 -12 3 4 -13 16 -21 21 -21
13z"/>
<path d="M7075 7390 c4 -6 11 -8 16 -5 14 9 11 15 -7 15 -8 0 -12 -5 -9 -10z"/>
<path d="M7053 7378 c1 -7 -4 -12 -11 -10 -8 1 -11 -2 -8 -7 3 -5 15 -7 26 -4
16 4 18 8 9 19 -14 17 -20 18 -16 2z"/>
<path d="M7017 7339 c7 -7 15 -10 18 -7 3 3 -2 9 -12 12 -14 6 -15 5 -6 -5z"/>
<path d="M6395 7190 c-4 -6 -1 -9 7 -8 7 2 12 -2 11 -7 -1 -6 7 -11 18 -11 20
0 26 20 9 31 -5 3 -10 1 -10 -6 0 -9 -3 -9 -14 0 -10 8 -16 9 -21 1z"/>
<path d="M6049 8187 c12 -15 12 -20 2 -27 -20 -12 -4 -29 20 -23 14 4 17 8 8
13 -7 5 -9 16 -5 26 4 10 4 15 0 11 -4 -4 -14 -1 -23 6 -14 11 -14 10 -2 -6z"/>
<path d="M6006 8135 c4 -8 10 -12 15 -9 14 8 10 24 -6 24 -9 0 -12 -6 -9 -15z"/>
<path d="M6175 8140 c3 -5 8 -10 11 -10 2 0 4 5 4 10 0 6 -5 10 -11 10 -5 0
-7 -4 -4 -10z"/>
<path d="M6206 8136 c3 -8 -2 -16 -13 -19 -14 -4 -14 -5 5 -6 22 -1 31 22 12
34 -5 3 -7 0 -4 -9z"/>
<path d="M6794 7885 c-12 -8 -24 -12 -26 -9 -3 2 -11 -2 -17 -10 -18 -22 9
-15 45 11 32 25 30 31 -2 8z"/>
<path d="M6805 7841 c-3 -5 -1 -12 5 -16 5 -3 10 1 10 9 0 18 -6 21 -15 7z"/>
<path d="M6837 7839 c7 -7 15 -10 18 -7 3 3 -2 9 -12 12 -14 6 -15 5 -6 -5z"/>
<path d="M7665 7110 c-3 -6 1 -7 9 -4 18 7 21 14 7 14 -6 0 -13 -4 -16 -10z"/>
<path d="M7081 6774 c6 -8 6 -14 0 -18 -5 -3 -7 -20 -4 -37 4 -26 2 -31 -11
-26 -9 4 -16 2 -16 -4 0 -20 35 -4 36 16 1 11 4 27 7 35 9 25 5 47 -10 47 -9
0 -10 -4 -2 -13z"/>
<path d="M6096 5845 c-3 -8 -1 -15 4 -15 6 0 10 7 10 15 0 8 -2 15 -4 15 -2 0
-6 -7 -10 -15z"/>
<path d="M5747 4296 c-3 -8 2 -20 11 -27 14 -11 15 -11 5 0 -6 7 -9 20 -6 27
3 8 3 14 0 14 -3 0 -7 -6 -10 -14z"/>
<path d="M5661 4216 c-9 -10 -7 -17 6 -27 13 -11 17 -11 21 -1 3 9 7 10 17 2
9 -8 15 -8 20 0 4 6 3 10 -2 9 -19 -3 -27 2 -14 10 9 6 10 11 2 15 -6 4 -11 2
-11 -5 0 -8 -3 -9 -14 0 -10 8 -16 8 -25 -3z m29 -10 c0 -11 -19 -15 -25 -6
-3 5 1 10 9 10 9 0 16 -2 16 -4z"/>
<path d="M5735 4210 c3 -5 8 -10 11 -10 2 0 4 5 4 10 0 6 -5 10 -11 10 -5 0
-7 -4 -4 -10z"/>
<path d="M5640 4120 c0 -6 7 -10 15 -10 8 0 15 2 15 4 0 2 -7 6 -15 10 -8 3
-15 1 -15 -4z"/>
<path d="M4550 6150 c0 -5 5 -10 11 -10 5 0 7 5 4 10 -3 6 -8 10 -11 10 -2 0
-4 -4 -4 -10z"/>
<path d="M4640 6133 c13 -28 27 -37 27 -18 0 8 -3 13 -5 10 -3 -3 -11 3 -19
13 -13 15 -13 15 -3 -5z"/>
<path d="M4935 6010 c-3 -5 -1 -10 4 -10 6 0 11 5 11 10 0 6 -2 10 -4 10 -3 0
-8 -4 -11 -10z"/>
<path d="M4885 5980 c10 -15 11 -20 14 -40 0 -5 6 -10 12 -10 8 0 9 4 0 13 -6
8 -9 16 -6 19 3 3 -2 11 -12 19 -15 12 -16 12 -8 -1z"/>
<path d="M4388 5473 c7 -3 16 -2 19 1 4 3 -2 6 -13 5 -11 0 -14 -3 -6 -6z"/>
<path d="M4670 5390 c19 -13 30 -13 30 0 0 6 -10 10 -22 10 -19 0 -20 -2 -8
-10z"/>
<path d="M4518 4613 c7 -3 16 -2 19 1 4 3 -2 6 -13 5 -11 0 -14 -3 -6 -6z"/>
<path d="M2836 3897 c3 -10 9 -15 12 -12 3 3 0 11 -7 18 -10 9 -11 8 -5 -6z"/>
<path d="M2919 3883 c-1 -5 -1 -12 0 -17 1 -5 -5 -6 -13 -3 -9 4 -18 2 -20 -2
-3 -5 4 -8 16 -7 12 1 22 9 24 19 1 9 0 17 -2 17 -2 0 -5 -3 -5 -7z"/>
<path d="M2865 3830 c-3 -6 1 -7 9 -4 18 7 21 14 7 14 -6 0 -13 -4 -16 -10z"/>
<path d="M2895 3811 c-3 -6 -14 -8 -25 -6 -11 2 -22 0 -24 -4 -8 -13 43 -6 56
7 7 7 9 12 6 12 -4 0 -9 -4 -13 -9z"/>
<path d="M2829 3757 c6 -8 7 -18 3 -22 -4 -5 -1 -5 6 -1 10 6 10 11 1 22 -6 8
-14 14 -16 14 -3 0 0 -6 6 -13z"/>
<path d="M2871 3747 c-8 -10 -7 -14 2 -14 8 0 14 6 14 14 0 7 -1 13 -2 13 -2
0 -8 -6 -14 -13z"/>
<path d="M2840 3685 c-7 -8 -17 -12 -23 -8 -6 3 -7 1 -3 -6 4 -6 12 -9 17 -6
10 7 12 -8 2 -19 -4 -3 -8 -14 -9 -22 -1 -9 1 -13 4 -9 4 4 8 11 8 16 1 5 3
12 4 17 2 4 4 14 4 22 1 8 8 14 15 12 7 -1 10 2 6 8 -8 13 -10 13 -25 -5z"/>
<path d="M2846 3597 c3 -10 9 -15 12 -12 3 3 0 11 -7 18 -10 9 -11 8 -5 -6z"/>
<path d="M4021 2707 c-7 -12 -10 -19 -6 -15 5 4 14 3 21 -3 18 -15 30 9 12 27
-11 12 -15 10 -27 -9z m29 -7 c0 -5 -2 -10 -4 -10 -3 0 -8 5 -11 10 -3 6 -1
10 4 10 6 0 11 -4 11 -10z"/>
<path d="M4035 2661 c-3 -5 -2 -12 3 -15 5 -3 9 1 9 9 0 17 -3 19 -12 6z"/>
<path d="M4015 2620 c-3 -6 1 -7 9 -4 18 7 21 14 7 14 -6 0 -13 -4 -16 -10z"/>
<path d="M4110 2550 c0 -6 -5 -8 -12 -4 -9 5 -9 2 1 -9 7 -9 17 -17 22 -17 12
0 11 27 -1 35 -5 3 -10 1 -10 -5z"/>
<path d="M4105 2500 c-3 -5 1 -10 10 -10 9 0 13 5 10 10 -3 6 -8 10 -10 10 -2
0 -7 -4 -10 -10z"/>
<path d="M5091 5954 c0 -11 3 -14 6 -6 3 7 2 16 -1 19 -3 4 -6 -2 -5 -13z"/>
<path d="M8116 4574 c-4 -10 0 -24 9 -33 10 -10 15 -11 15 -3 0 7 -4 12 -10
12 -5 0 -10 4 -10 10 0 5 8 7 18 4 10 -4 13 -2 7 3 -5 4 -13 12 -16 16 -4 4
-10 0 -13 -9z"/>
<path d="M4666 4477 c3 -10 9 -15 12 -12 3 3 0 11 -7 18 -10 9 -11 8 -5 -6z"/>
<path d="M4647 4450 c7 -8 20 -15 29 -16 9 -1 13 1 9 4 -4 4 -10 7 -13 7 -4 0
-14 4 -22 9 -12 7 -13 6 -3 -4z"/>
<path d="M4710 4400 c-9 -6 -10 -10 -3 -10 6 0 15 5 18 10 8 12 4 12 -15 0z"/>
<path d="M4673 4385 c0 -8 4 -12 9 -9 5 3 6 10 3 15 -9 13 -12 11 -12 -6z"/>
<path d="M5030 4110 c-9 -6 -10 -10 -3 -10 6 0 15 5 18 10 8 12 4 12 -15 0z"/>
<path d="M7886 4354 c-5 -14 -4 -15 9 -4 17 14 19 20 6 20 -5 0 -12 -7 -15
-16z"/>
<path d="M7757 3905 c3 -8 9 -13 13 -10 5 3 10 0 12 -7 3 -8 6 -9 11 -1 3 5
-5 15 -18 21 -20 9 -23 9 -18 -3z"/>
<path d="M7870 3901 c0 -6 4 -12 8 -15 5 -3 9 1 9 9 0 8 -4 15 -9 15 -4 0 -8
-4 -8 -9z"/>
<path d="M7811 3886 c-10 -12 -8 -13 8 -9 12 3 18 9 15 14 -7 12 -10 11 -23
-5z"/>
<path d="M7875 3849 c-4 -6 -5 -12 -2 -15 2 -3 7 2 10 11 7 17 1 20 -8 4z"/>
<path d="M7485 3909 c-4 -6 -5 -12 -2 -15 2 -3 7 2 10 11 7 17 1 20 -8 4z"/>
<path d="M7427 3416 c-4 -10 -1 -13 8 -9 8 3 12 9 9 14 -7 12 -11 11 -17 -5z"/>
<path d="M7455 3350 c-3 -5 -1 -10 4 -10 6 0 11 5 11 10 0 6 -2 10 -4 10 -3 0
-8 -4 -11 -10z"/>
<path d="M6905 3240 c-3 -5 -1 -10 4 -10 6 0 11 5 11 10 0 6 -2 10 -4 10 -3 0
-8 -4 -11 -10z"/>
<path d="M7012 3241 c-11 -7 -11 -9 0 -14 9 -3 15 1 15 9 0 8 -1 14 -1 14 -1
0 -7 -4 -14 -9z"/>
<path d="M6627 3399 c7 -7 15 -10 18 -7 3 3 -2 9 -12 12 -14 6 -15 5 -6 -5z"/>
<path d="M6419 2943 c0 -4 -2 -18 -5 -30 -4 -24 10 -31 22 -11 4 6 2 14 -5 16
-10 3 -11 6 -1 12 9 5 9 9 1 14 -6 4 -11 4 -12 -1z"/>
<path d="M6513 2865 c0 -8 4 -12 9 -9 5 3 6 10 3 15 -9 13 -12 11 -12 -6z"/>
<path d="M6490 2810 c0 -5 5 -10 10 -10 6 0 10 5 10 10 0 6 -4 10 -10 10 -5 0
-10 -4 -10 -10z"/>
<path d="M5711 2534 c0 -11 3 -14 6 -6 3 7 2 16 -1 19 -3 4 -6 -2 -5 -13z"/>
<path d="M5358 1316 c-57 -21 -85 -42 -116 -88 -24 -37 -27 -51 -27 -124 0
-75 3 -86 30 -125 96 -137 314 -122 388 26 52 105 7 244 -95 296 -52 27 -132
33 -180 15z"/>
<path d="M2890 1249 l0 -72 57 6 c38 4 62 12 70 23 14 20 17 62 5 81 -11 17
-58 33 -98 33 l-34 0 0 -71z"/>
</g>
</svg>
