<?xml version="1.0" standalone="no"?>
<!DOCTYPE svg PUBLIC "-//W3C//DTD SVG 20010904//EN"
 "http://www.w3.org/TR/2001/REC-SVG-20010904/DTD/svg10.dtd">
<svg version="1.0" xmlns="http://www.w3.org/2000/svg"
 width="1024.000000pt" height="1024.000000pt" viewBox="0 0 1024.000000 1024.000000"
 preserveAspectRatio="xMidYMid meet">

<g transform="translate(0.000000,1024.000000) scale(0.100000,-0.100000)"
fill="#000000" stroke="none">
<path d="M5168 8618 c-9 -5 -9 -8 -1 -8 6 0 32 -27 57 -61 46 -62 61 -95 29
-67 -78 69 -335 127 -458 104 l-38 -7 39 -26 c43 -28 134 -113 134 -125 0 -4
-25 4 -55 18 -79 34 -223 58 -316 51 -87 -7 -212 -33 -249 -52 l-25 -13 30
-12 c84 -32 235 -133 221 -147 -3 -3 -12 -1 -19 5 -7 7 -54 21 -103 33 -75 18
-108 20 -209 16 -138 -6 -209 -23 -315 -75 l-74 -37 74 -12 c41 -7 102 -22
135 -34 61 -22 149 -68 142 -75 -2 -2 -37 3 -78 12 -100 21 -285 14 -389 -16
-104 -29 -243 -100 -317 -161 -35 -28 -63 -55 -63 -59 0 -5 21 -1 48 7 133 41
347 22 475 -41 44 -22 60 -34 42 -30 -72 13 -282 16 -349 4 -233 -41 -468
-191 -620 -395 -73 -97 -73 -97 -24 -75 24 10 79 28 122 40 96 27 237 24 326
-6 l55 -18 -105 -7 c-200 -12 -345 -84 -506 -250 -45 -46 -102 -115 -127 -154
-43 -68 -107 -190 -107 -207 0 -4 21 8 47 28 25 19 72 48 102 63 61 31 202 84
207 78 2 -2 -17 -19 -44 -37 -144 -103 -275 -270 -346 -439 -13 -31 -36 -99
-50 -151 l-25 -95 36 45 c68 84 203 209 286 264 199 132 423 195 697 197 91 0
128 3 113 9 -13 5 -23 13 -23 18 0 17 -155 79 -255 102 -69 16 -117 21 -160
17 l-60 -5 35 15 c19 9 62 22 95 30 63 15 342 42 351 34 10 -11 44 -7 48 6 3
8 2 12 -3 8 -13 -8 -42 6 -35 17 3 5 0 8 -7 7 -20 -4 -59 11 -59 22 0 6 -5 7
-12 3 -7 -5 -8 -3 -4 5 6 9 13 8 27 -5 18 -16 19 -17 13 -1 -5 13 -2 16 9 11
9 -3 14 -13 11 -22 -5 -13 -2 -13 10 2 30 37 24 43 -94 103 -36 18 -73 33 -82
33 -9 0 -20 5 -24 11 -5 9 28 10 127 5 74 -3 149 -8 167 -10 18 -1 36 2 39 7
3 6 1 7 -5 3 -7 -4 -12 -2 -12 3 0 6 -3 10 -7 10 -5 -1 -15 -1 -23 0 -12 1
-12 4 2 12 12 7 24 6 39 -1 11 -7 23 -9 26 -7 2 3 -5 8 -16 12 -12 3 -19 10
-17 14 3 4 -8 7 -23 6 -19 -1 -28 3 -27 12 1 7 5 13 9 13 4 0 12 0 18 0 5 0 7
-5 3 -12 -5 -8 -2 -9 10 -5 10 4 23 7 29 7 8 0 8 3 2 8 -19 13 -92 117 -130
182 -20 36 -48 81 -62 100 -15 20 7 3 53 -41 191 -183 286 -256 405 -313 62
-29 69 -31 69 -16 0 6 -6 9 -12 8 -8 -2 -12 6 -10 22 4 24 3 25 -12 5 -15 -19
-16 -19 -6 8 8 22 7 27 -6 27 -9 0 -12 -5 -8 -12 4 -7 3 -8 -5 -4 -9 6 -9 11
-1 22 15 17 -13 59 -84 128 l-51 49 40 -23 c77 -45 91 -54 170 -114 44 -33
139 -114 210 -181 129 -120 210 -182 293 -224 62 -32 191 -77 239 -85 37 -5
42 -4 36 11 -5 12 -3 14 8 9 8 -4 5 -1 -5 8 -10 8 -22 13 -27 11 -13 -9 -22
16 -10 28 9 9 11 7 5 -8 -5 -16 -4 -17 5 -9 10 9 -2 34 -57 115 -38 57 -83
119 -101 138 -17 18 -31 35 -31 38 0 12 119 -83 226 -180 120 -110 176 -149
229 -161 22 -5 26 -4 15 4 -13 8 -12 10 4 10 17 0 17 2 3 23 -8 12 -21 21 -27
19 -6 -1 -8 2 -5 8 4 6 13 9 20 7 13 -6 6 18 -28 95 -10 21 -17 41 -17 46 0 4
-16 35 -36 68 l-35 59 56 -55 c31 -30 88 -99 127 -153 79 -109 157 -199 158
-179 0 6 5 12 11 12 5 0 7 -6 3 -12 -6 -10 -5 -10 8 -1 8 7 19 9 23 5 5 -4 5
-1 1 6 -5 7 -11 11 -14 8 -3 -3 -11 -1 -19 5 -10 9 -13 8 -13 0 0 -7 -5 -9
-11 -5 -8 5 -6 10 5 16 9 5 16 17 16 26 0 15 2 15 10 2 8 -13 10 -12 10 3 0
22 16 22 28 1 8 -14 13 -14 28 -5 18 12 18 12 -1 7 -19 -6 -19 -5 -3 7 20 16
14 28 -10 21 -10 -3 -7 1 6 7 l22 12 0 887 0 888 -50 21 c-56 24 -163 42 -182
29z m-1673 -1688 c3 -6 -1 -7 -9 -4 -18 7 -21 14 -7 14 6 0 13 -4 16 -10z m35
0 c0 -5 -2 -10 -4 -10 -3 0 -8 5 -11 10 -3 6 -1 10 4 10 6 0 11 -4 11 -10z
m1857 -115 c0 -8 -4 -12 -9 -9 -5 3 -6 10 -3 15 9 13 12 11 12 -6z"/>
<path d="M5535 8563 c-14 -14 -16 -30 -11 -97 3 -44 11 -84 16 -90 8 -8 9 -5
4 8 -5 13 -4 17 4 12 7 -4 12 -14 12 -22 0 -8 8 -14 18 -15 14 0 14 -2 -3 -9
-17 -7 -17 -9 -3 -9 10 -1 23 8 30 19 7 11 20 20 28 19 11 0 11 -2 2 -6 -10
-4 -10 -8 0 -21 10 -12 10 -14 1 -8 -8 4 -13 1 -13 -8 0 -12 15 -8 68 18 178
90 286 124 419 133 45 3 80 9 78 13 -7 12 -149 48 -255 65 -53 8 -158 15 -237
15 -119 0 -144 -3 -158 -17z m65 -195 c0 -6 -6 -5 -15 2 -8 7 -15 14 -15 16 0
2 7 1 15 -2 8 -4 15 -11 15 -16z"/>
<path d="M7914 8367 c-426 -286 -548 -381 -773 -601 -140 -137 -202 -207 -384
-440 -86 -109 -195 -241 -244 -294 -131 -142 -296 -274 -458 -367 -49 -28 -49
-27 36 56 86 85 159 167 227 256 20 26 45 57 55 68 10 11 26 32 35 48 9 15 20
27 24 27 4 0 8 7 8 15 0 8 4 15 9 15 16 0 17 34 2 46 -12 10 -13 15 -3 27 21
25 -13 15 -42 -12 -22 -21 -32 -61 -16 -61 4 0 7 -7 7 -16 0 -15 -2 -14 -13 1
-8 10 -11 22 -8 26 3 5 1 9 -4 9 -13 0 -33 -25 -27 -33 3 -4 2 -5 -1 -2 -4 2
-42 -29 -86 -70 -103 -97 -255 -225 -267 -225 -5 0 -11 -4 -13 -8 -11 -29
-303 -198 -400 -232 l-53 -18 -3 -186 c-2 -102 -1 -186 1 -186 13 0 263 86
351 121 136 54 406 194 530 276 170 111 309 227 573 480 249 237 354 324 523
433 144 92 281 200 381 300 93 92 205 237 193 249 -3 3 -15 -5 -25 -19 -11
-14 -27 -33 -35 -43 -7 -9 -14 -22 -14 -28 0 -5 -4 -8 -9 -5 -5 3 -12 -1 -15
-10 -3 -8 -10 -12 -16 -9 -6 3 -7 -1 -4 -9 4 -11 0 -16 -11 -16 -9 0 -13 -4
-10 -10 3 -5 -2 -10 -11 -10 -10 0 -15 -3 -11 -6 6 -6 -16 -34 -27 -34 -4 0
-22 -16 -41 -36 -20 -21 -40 -32 -46 -28 -8 5 -9 3 -4 -6 6 -10 3 -12 -14 -7
-19 5 -20 3 -10 -9 8 -10 8 -14 1 -12 -6 2 -17 -6 -25 -17 -13 -17 -18 -18
-43 -6 -28 12 -28 12 -11 -6 13 -15 14 -22 5 -31 -7 -7 -18 -12 -25 -12 -7 0
-13 -4 -13 -9 0 -5 -8 -8 -17 -7 -11 0 -17 -5 -15 -14 2 -8 0 -11 -4 -7 -11
11 -14 38 -3 31 5 -3 9 -1 9 4 0 5 -8 12 -19 15 -16 4 -17 1 -10 -32 7 -31 6
-33 -5 -18 -15 20 -41 22 -52 5 -5 -8 -1 -9 12 -5 18 7 18 6 2 -6 -10 -8 -19
-24 -21 -35 -2 -12 -7 -25 -12 -29 -4 -5 -5 -3 -2 3 4 7 -6 10 -31 9 -20 -2
-40 2 -44 9 -5 7 -8 4 -8 -7 0 -12 -4 -16 -12 -11 -7 4 -10 4 -6 -1 4 -4 1
-17 -7 -28 -11 -15 -12 -24 -3 -34 8 -11 7 -12 -6 -7 -10 4 -15 13 -12 20 3 8
-1 11 -12 8 -9 -2 -7 1 6 7 23 12 30 29 12 29 -5 0 -10 -5 -10 -11 0 -8 -6 -7
-17 2 -11 10 -14 10 -9 2 4 -7 3 -13 -3 -13 -5 0 -8 -9 -6 -19 3 -16 -1 -19
-21 -15 -13 2 -24 0 -24 -6 0 -6 -6 -8 -12 -4 -8 5 -7 0 2 -11 14 -17 14 -18
-9 -6 -13 7 -21 8 -17 3 3 -6 2 -13 -3 -17 -6 -3 -8 -13 -5 -23 4 -12 3 -13
-3 -5 -7 10 -13 10 -29 -1 -16 -13 -21 -13 -36 0 -12 12 -18 12 -24 3 -4 -7
-3 -10 2 -6 6 3 15 -2 21 -12 9 -14 8 -18 -3 -18 -7 0 -11 3 -9 7 2 3 -5 11
-16 18 -21 14 -25 3 -6 -18 10 -12 9 -12 -6 0 -16 11 -20 12 -27 0 -4 -7 -7
-21 -5 -31 3 -16 1 -17 -16 -6 -10 6 -15 13 -9 15 6 2 7 9 3 15 -3 7 -3 9 1 6
3 -3 26 14 51 38 24 25 49 42 55 38 5 -3 10 1 10 9 0 18 128 111 290 211 283
174 514 393 629 596 46 82 102 240 84 238 -5 0 -143 -92 -309 -202z m-328
-729 c4 -7 3 -8 -4 -4 -7 4 -12 2 -12 -4 0 -6 -5 -8 -11 -4 -8 4 -7 9 2 15 18
11 17 11 25 -3z m-126 -58 c0 -5 -2 -10 -4 -10 -3 0 -8 5 -11 10 -3 6 -1 10 4
10 6 0 11 -4 11 -10z m-5 -28 c-3 -3 -11 0 -18 7 -9 10 -8 11 6 5 10 -3 15 -9
12 -12z m-114 -59 c13 -16 12 -17 -3 -4 -10 7 -18 15 -18 17 0 8 8 3 21 -13z
m-241 -97 c0 -11 -19 -15 -25 -6 -3 5 1 10 9 10 9 0 16 -2 16 -4z m-31 -20 c9
-11 7 -15 -9 -19 -11 -3 -23 -1 -26 4 -3 5 0 8 8 7 7 -2 12 3 11 10 -4 16 2
15 16 -2z m-34 -44 c-3 -3 -11 0 -18 7 -9 10 -8 11 6 5 10 -3 15 -9 12 -12z
m-605 -143 c0 7 5 9 10 6 17 -11 11 -31 -9 -31 -11 0 -19 5 -18 11 1 5 -4 9
-11 7 -8 -1 -11 2 -7 8 5 8 11 7 21 -1 11 -9 14 -9 14 0z"/>
<path d="M6218 8365 c-115 -23 -229 -90 -275 -162 -16 -26 -16 -27 0 -14 15
12 17 12 11 -3 -5 -12 0 -16 19 -16 16 0 27 6 29 18 3 14 6 13 17 -7 7 -13 8
-21 3 -17 -6 3 -13 2 -17 -4 -4 -6 -10 -8 -14 -6 -4 3 -8 -1 -8 -9 0 -8 4 -12
8 -10 4 3 10 -3 13 -12 5 -12 9 -14 18 -5 16 16 31 15 25 -1 -3 -8 3 -14 14
-14 10 -1 19 3 19 8 0 6 -6 7 -12 3 -8 -4 -10 -3 -5 2 5 5 14 9 20 9 7 0 12
13 12 30 0 25 4 29 28 30 15 1 30 -1 32 -5 3 -4 -9 -6 -25 -5 -17 1 -30 -1
-30 -6 0 -9 22 -13 49 -9 9 1 12 -4 8 -14 -4 -9 -3 -15 1 -15 20 3 23 -3 11
-18 -10 -11 -10 -14 -1 -9 6 4 12 2 12 -3 0 -9 -28 -16 -52 -12 -4 0 -5 -6 -2
-14 5 -12 17 -9 64 15 70 35 273 104 355 120 35 7 120 10 203 8 122 -3 140 -1
125 11 -60 46 -284 123 -406 140 -99 14 -164 13 -249 -4z m-144 -178 c4 4 4
-1 0 -11 -4 -10 -2 -21 5 -26 9 -5 6 -9 -8 -13 -24 -6 -40 11 -20 23 10 7 10
12 -2 27 -12 16 -12 17 2 6 9 -7 19 -10 23 -6z m-44 -46 c0 -17 -18 -21 -24
-6 -3 9 0 15 9 15 8 0 15 -4 15 -9z m160 -1 c0 -5 -2 -10 -4 -10 -3 0 -8 5
-11 10 -3 6 -1 10 4 10 6 0 11 -4 11 -10z m30 -16 c0 -8 -9 -14 -22 -13 -19 1
-19 2 -5 6 11 3 16 11 13 19 -3 9 -1 12 4 9 6 -3 10 -13 10 -21z"/>
<path d="M5601 8324 c0 -11 3 -14 6 -6 3 7 2 16 -1 19 -3 4 -6 -2 -5 -13z"/>
<path d="M5910 8159 c0 -5 5 -7 12 -3 7 5 9 2 6 -8 -4 -8 0 -15 7 -15 10 0 11
5 4 19 -11 20 -29 24 -29 7z"/>
<path d="M6111 8137 c2 -1 13 -9 24 -17 19 -14 19 -14 6 3 -7 9 -18 17 -24 17
-6 0 -8 -1 -6 -3z"/>
<path d="M6751 8069 c-90 -18 -230 -97 -214 -122 3 -6 1 -7 -4 -4 -6 4 -18 -2
-27 -12 -16 -17 -16 -19 4 -24 17 -4 19 -3 9 9 -13 15 -2 19 19 5 11 -7 11
-11 -2 -23 -14 -14 -13 -16 4 -21 13 -3 17 0 13 9 -4 10 2 11 24 5 15 -4 34
-6 42 -3 9 3 11 0 6 -8 -6 -9 -4 -11 4 -6 7 5 18 0 27 -10 13 -17 14 -17 8 -1
-7 18 -43 43 -58 39 -4 -2 -14 2 -20 8 -7 5 -16 7 -19 3 -4 -3 -7 -1 -7 5 0
15 17 16 25 2 3 -5 11 -10 17 -10 7 0 7 4 -1 13 -8 10 -7 14 4 14 7 0 13 -5
12 -11 -1 -6 5 -10 14 -8 9 1 22 -5 29 -13 15 -18 35 -20 24 -3 -5 7 -3 8 6 3
10 -6 10 -11 -4 -20 -15 -12 -15 -13 1 -26 13 -11 15 -11 9 -1 -5 9 -3 12 7
10 9 -2 23 6 32 17 16 20 16 20 5 -2 -5 -12 -15 -25 -20 -28 -6 -4 -7 -11 -4
-17 5 -7 1 -9 -9 -5 -9 3 -19 2 -22 -3 -8 -13 25 -13 45 0 9 6 20 5 29 -3 12
-10 13 -9 7 2 -6 9 -5 12 5 9 8 -3 13 -14 12 -24 -1 -10 0 -13 3 -6 3 6 9 10
14 7 5 -3 40 2 80 10 39 8 86 15 104 15 26 0 47 14 121 85 99 95 99 93 10 119
-122 35 -263 45 -364 25z m45 -192 c-36 -26 -63 -33 -45 -11 6 8 14 12 17 10
2 -3 14 1 26 9 32 23 34 17 2 -8z m24 -43 c0 -8 -5 -12 -10 -9 -6 4 -8 11 -5
16 9 14 15 11 15 -7z m35 -2 c-3 -3 -11 0 -18 7 -9 10 -8 11 6 5 10 -3 15 -9
12 -12z"/>
<path d="M6026 8058 c3 -5 10 -6 15 -3 13 9 11 12 -6 12 -8 0 -12 -4 -9 -9z"/>
<path d="M6470 7889 c0 -5 5 -7 11 -3 6 3 15 0 20 -7 7 -11 9 -10 9 4 0 10 -8
17 -20 17 -11 0 -20 -5 -20 -11z"/>
<path d="M6747 7809 c7 -7 15 -10 18 -7 3 3 -2 9 -12 12 -14 6 -15 5 -6 -5z"/>
<path d="M7648 7734 c6 -3 12 -10 12 -15 0 -6 -4 -7 -10 -4 -5 3 -10 1 -10 -4
0 -17 18 -13 29 7 6 10 11 12 11 4 0 -7 5 -10 11 -7 14 9 7 15 -27 20 -16 2
-23 2 -16 -1z"/>
<path d="M7513 7640 c-3 -11 -12 -20 -21 -20 -8 0 -13 -3 -9 -6 11 -12 43 6
44 26 2 26 -7 26 -14 0z"/>
<path d="M7844 7608 l-19 -23 23 19 c21 18 27 26 19 26 -2 0 -12 -10 -23 -22z"/>
<path d="M7724 7516 c18 -14 15 -21 -6 -17 -5 0 -8 -6 -8 -14 0 -8 -5 -14 -12
-12 -6 1 -17 -8 -23 -20 -7 -13 -15 -20 -18 -16 -4 3 -7 1 -7 -7 0 -9 -3 -10
-13 -1 -16 13 -28 5 -21 -14 5 -12 -49 -65 -67 -65 -5 0 -9 -7 -9 -16 0 -9 -5
-12 -12 -8 -7 4 -8 3 -4 -5 8 -12 153 105 211 170 17 19 26 31 21 27 -5 -4
-18 -3 -30 3 -20 10 -20 10 -2 -5z"/>
<path d="M7205 7490 c-4 -6 -3 -16 3 -22 13 -13 23 4 13 21 -7 10 -10 10 -16
1z"/>
<path d="M7230 7490 c0 -5 4 -10 9 -10 6 0 13 5 16 10 3 6 -1 10 -9 10 -9 0
-16 -4 -16 -10z"/>
<path d="M7674 7177 c3 -22 1 -25 -11 -16 -11 9 -12 8 -7 -5 3 -9 1 -16 -6
-16 -6 0 -8 -5 -4 -12 5 -9 2 -8 -9 1 -15 12 -17 12 -11 -4 5 -12 4 -16 -3
-12 -6 4 -20 -3 -30 -15 -10 -13 -23 -23 -30 -23 -6 0 -26 -13 -44 -29 -20
-18 -34 -25 -37 -18 -2 7 -8 9 -14 6 -5 -3 0 -13 12 -21 11 -8 57 -56 101
-106 121 -139 209 -328 256 -547 27 -128 25 -420 -5 -553 -64 -291 -195 -534
-369 -684 -72 -62 -186 -139 -230 -155 -18 -7 -33 -15 -33 -19 0 -4 30 -60 66
-125 134 -241 234 -369 357 -455 39 -27 72 -47 75 -45 2 3 -6 19 -18 35 -36
52 -106 210 -145 331 -31 98 -34 116 -22 125 154 108 264 217 352 350 267 404
338 957 184 1428 -42 128 -147 337 -215 427 -68 90 -134 161 -145 154 -4 -2
-10 4 -13 13 -3 10 -4 6 -2 -10z m16 -61 c0 -2 -7 -7 -16 -10 -8 -3 -12 -2 -9
4 6 10 25 14 25 6z"/>
<path d="M3570 6968 c0 -4 4 -8 9 -8 6 0 12 4 15 8 3 5 -1 9 -9 9 -8 0 -15 -4
-15 -9z"/>
<path d="M3616 6912 c-3 -5 1 -9 9 -9 8 0 12 4 9 9 -3 4 -7 8 -9 8 -2 0 -6 -4
-9 -8z"/>
<path d="M7255 6899 c-22 -4 -55 -11 -73 -15 -22 -4 -31 -11 -28 -20 3 -7 0
-16 -6 -20 -6 -4 -8 -3 -4 4 3 6 2 13 -4 17 -11 7 -14 -28 -3 -38 3 -4 12 -2
18 3 9 7 17 5 26 -7 12 -16 12 -17 -2 -6 -9 7 -19 9 -23 5 -4 -4 -13 -7 -19
-7 -7 -1 -11 -5 -10 -11 1 -6 -13 -9 -33 -8 -33 3 -45 -8 -24 -21 6 -4 8 -11
4 -16 -3 -5 -10 -6 -16 -3 -7 5 -8 2 -4 -5 5 -7 0 -21 -9 -31 -10 -12 -15 -28
-12 -40 4 -18 3 -19 -9 -9 -12 10 -13 9 -8 -6 6 -14 4 -16 -6 -10 -10 6 -12 4
-7 -9 4 -10 7 -22 7 -27 0 -6 5 -7 12 -3 6 4 8 3 5 -3 -4 -6 1 -35 10 -64 27
-83 24 -273 -4 -364 -48 -150 -156 -280 -292 -348 -96 -48 -163 -60 -296 -55
-124 6 -180 23 -286 87 -35 21 -65 38 -67 36 -2 -2 -4 -17 -4 -35 l-1 -32 -19
23 c-20 24 -20 24 -1 -10 10 -18 24 -35 31 -38 6 -3 12 -9 12 -14 0 -19 38
-52 98 -86 62 -35 82 -59 23 -29 -16 9 -36 16 -44 16 -17 0 -159 97 -170 116
-12 21 -22 17 -36 -13 l-12 -28 21 25 c21 25 21 25 10 1 -10 -19 -9 -26 1 -33
11 -8 10 -9 -3 -4 -22 7 -24 -10 -2 -22 9 -5 15 -12 15 -16 -3 -18 34 -68 84
-115 31 -28 53 -51 48 -51 -18 0 -100 58 -147 103 -51 50 -94 72 -83 43 5 -12
3 -15 -5 -10 -8 5 -9 2 -3 -12 4 -10 7 -32 6 -47 -1 -16 3 -26 8 -23 5 3 7 -2
5 -12 -3 -10 12 -42 36 -76 23 -32 39 -60 37 -62 -8 -9 -129 127 -124 140 3 7
0 13 -7 13 -16 0 -17 -8 -17 -209 0 -84 33 -226 67 -289 44 -80 130 -149 91
-72 -17 34 -43 138 -52 208 l-6 50 39 -80 c42 -87 125 -185 207 -244 26 -19
46 -30 44 -25 -2 5 -18 36 -35 69 -30 58 -65 157 -78 220 -6 27 -4 25 20 -15
79 -131 181 -233 302 -304 7 -5 0 16 -17 46 -30 52 -124 268 -117 268 2 0 36
-41 76 -91 70 -87 165 -177 264 -247 44 -32 46 -32 37 -9 -14 37 -117 236
-148 287 l-28 45 49 -40 c100 -82 228 -231 337 -393 60 -89 109 -169 109 -177
0 -12 -5 -12 -33 0 -97 40 -392 62 -504 37 -29 -7 -45 -6 -54 2 -9 8 -10 8 -5
-1 10 -18 -94 -46 -113 -30 -12 9 -13 9 -8 0 8 -13 -18 -31 -50 -36 -10 -1
-35 -13 -54 -25 -20 -12 -40 -22 -44 -22 -4 0 -20 -9 -36 -21 -16 -11 -34 -17
-39 -14 -6 4 -9 1 -8 -7 2 -8 -7 -13 -23 -13 -15 0 -25 -4 -23 -10 6 -14 -53
-58 -66 -50 -6 4 -9 1 -8 -7 2 -8 -4 -12 -15 -10 -9 2 -16 -1 -15 -5 4 -12
-51 -63 -67 -63 -8 0 -19 8 -24 18 -7 11 -10 12 -11 3 0 -8 -6 -11 -15 -7 -12
4 -13 2 -5 -13 7 -14 6 -21 -3 -24 -9 -4 -9 -6 1 -6 7 -1 11 -5 7 -10 -3 -5
-1 -12 4 -15 5 -4 8 2 6 11 -1 10 2 24 7 30 11 14 28 8 28 -8 0 -6 -4 -7 -10
-4 -9 6 -14 -7 -11 -27 0 -4 -7 -12 -17 -17 -15 -8 -20 -4 -30 23 -7 18 -18
33 -26 33 -8 0 -12 -6 -9 -14 3 -7 -2 -16 -11 -19 -13 -5 -13 -8 6 -23 29 -24
15 -42 -28 -38 -18 3 -45 -1 -58 -8 -14 -7 -27 -10 -31 -7 -3 4 -3 -1 1 -11 3
-9 10 -14 15 -11 5 3 6 -1 3 -9 -6 -17 21 -43 31 -27 8 13 25 13 25 -1 0 -5
-4 -8 -9 -4 -5 3 -13 1 -16 -5 -5 -8 -11 -8 -20 0 -8 7 -18 9 -24 6 -5 -3 -12
1 -15 10 -3 8 -2 12 4 9 6 -3 10 -1 10 4 0 6 -9 11 -20 11 -18 0 -19 -3 -10
-20 9 -16 8 -19 -6 -13 -12 4 -15 3 -10 -5 4 -7 16 -12 26 -12 10 0 21 -4 25
-9 3 -6 -7 -6 -27 0 -42 12 -43 12 -29 -5 9 -11 8 -15 -4 -20 -9 -3 -13 -11
-10 -16 4 -6 1 -17 -5 -25 -16 -19 -29 -236 -29 -475 l0 -195 19 53 c26 72 94
204 142 275 227 335 551 554 938 634 61 12 132 17 255 17 198 0 272 -12 472
-80 73 -24 135 -44 139 -44 4 0 -53 62 -127 138 -155 159 -379 399 -379 406 0
6 180 -73 198 -87 16 -13 15 2 -1 22 -8 9 -35 56 -61 105 -115 217 -197 345
-274 429 -31 32 -25 34 28 7 69 -35 166 -52 282 -48 58 2 109 5 112 9 3 3 -42
54 -99 114 -58 59 -103 110 -101 113 3 2 27 -3 53 -13 63 -22 216 -31 280 -16
l49 12 -113 111 c-62 62 -111 113 -110 114 2 2 23 -4 47 -13 75 -26 201 -19
297 18 24 9 21 13 -73 84 -55 40 -112 84 -127 97 l-28 23 83 0 c66 0 99 6 161
29 42 15 77 32 77 36 0 8 -184 115 -242 141 -16 7 -28 16 -28 21 0 4 12 8 28
8 57 1 242 87 242 113 0 20 -156 78 -275 102 -28 6 -27 7 28 30 84 34 184 121
163 142 -13 13 -147 32 -228 33 -52 0 -88 4 -88 10 0 6 7 10 15 10 46 0 159
94 195 160 l12 23 -113 -6 c-63 -4 -144 -10 -181 -13 -38 -4 -68 -3 -68 2 0 5
18 17 39 27 41 19 111 84 143 135 22 35 21 35 -47 21z m-158 -128 c1 -9 -1
-23 -4 -31 -3 -8 -6 -24 -7 -35 -1 -20 -36 -36 -36 -16 0 6 7 8 16 4 13 -5 15
0 11 26 -3 17 -1 34 4 37 6 4 6 10 0 18 -8 9 -7 13 2 13 8 0 14 -7 14 -16z
m-987 -926 c0 -8 -4 -15 -10 -15 -5 0 -7 7 -4 15 4 8 8 15 10 15 2 0 4 -7 4
-15z m-353 -1549 c-3 -7 0 -20 6 -27 10 -11 9 -11 -5 0 -15 11 -15 41 -1 41 3
0 3 -6 0 -14z m-57 -77 c0 7 5 9 11 5 8 -4 7 -9 -2 -15 -13 -8 -5 -13 14 -10
5 1 6 -3 2 -9 -5 -8 -11 -8 -20 0 -10 8 -14 7 -17 -2 -4 -10 -8 -10 -21 1 -13
10 -15 17 -6 27 9 11 15 11 25 3 11 -9 14 -8 14 0z m50 -9 c0 -5 -2 -10 -4
-10 -3 0 -8 5 -11 10 -3 6 -1 10 4 10 6 0 11 -4 11 -10z m-80 -96 c0 -2 -7 -4
-15 -4 -8 0 -15 4 -15 10 0 5 7 7 15 4 8 -4 15 -8 15 -10z"/>
<path d="M5665 4200 c4 -6 11 -8 16 -5 14 9 11 15 -7 15 -8 0 -12 -5 -9 -10z"/>
<path d="M7101 6826 c-10 -11 -9 -14 1 -12 14 2 23 15 15 22 -2 2 -10 -2 -16
-10z"/>
<path d="M7020 6765 c-7 -9 -10 -18 -6 -22 3 -3 6 -1 6 6 0 7 4 10 8 7 5 -3 9
1 9 9 0 19 -2 19 -17 0z"/>
<path d="M5328 6728 c-10 -9 -14 -19 -10 -22 13 -8 34 10 30 25 -2 12 -6 11
-20 -3z"/>
<path d="M6970 6686 c0 -2 7 -7 16 -10 8 -3 12 -2 9 4 -6 10 -25 14 -25 6z"/>
<path d="M3952 6652 c2 -9 -2 -16 -8 -15 -21 4 -6 -96 24 -161 42 -91 100
-149 190 -194 72 -35 81 -37 172 -37 87 0 101 3 160 32 36 18 82 46 102 63 46
38 116 178 76 154 -8 -5 -9 -2 -5 10 5 14 3 17 -8 12 -9 -3 -15 0 -15 8 0 8
-7 16 -15 20 -8 3 -15 1 -15 -4 0 -6 5 -10 10 -10 6 0 10 -6 10 -12 -1 -7 -11
0 -24 16 l-24 28 -33 -44 c-143 -190 -409 -146 -475 77 -8 28 -19 57 -25 65
-9 13 -10 12 -5 -2 3 -12 0 -18 -9 -18 -8 0 -15 -4 -15 -9 0 -6 9 -8 19 -6 14
3 18 -1 14 -12 -3 -8 -9 -11 -12 -6 -5 7 -46 10 -53 3 -12 -8 -35 -5 -35 5 0
8 9 12 20 10 14 -3 16 -1 8 9 -7 8 -7 16 -1 22 6 6 3 10 -10 11 -14 1 -20 -4
-18 -15z"/>
<path d="M6733 6637 c-11 -12 -28 -27 -38 -32 -16 -10 -15 -14 16 -59 33 -47
34 -50 34 -149 0 -91 -3 -107 -27 -152 -83 -156 -267 -212 -432 -131 -28 14
-79 48 -114 77 -91 73 -122 52 -61 -42 150 -235 473 -264 662 -59 79 85 101
146 102 280 0 112 -13 158 -71 242 -33 47 -47 52 -71 25z"/>
<path d="M3192 6559 c-128 -21 -309 -106 -421 -196 -266 -215 -442 -556 -491
-953 -17 -142 -13 -156 20 -70 16 41 34 83 40 92 5 10 10 22 10 28 0 6 32 59
72 118 39 59 71 108 70 109 -1 1 11 15 26 31 15 15 61 64 102 108 151 160 297
265 445 318 78 29 76 27 -49 -47 -113 -66 -250 -206 -326 -332 -43 -71 -140
-289 -140 -314 0 -3 36 30 79 74 44 43 77 83 74 88 -3 6 -1 7 6 3 6 -4 28 5
49 21 142 109 322 176 532 198 l55 5 -85 -28 c-241 -81 -401 -193 -581 -408
-117 -140 -170 -235 -236 -429 -26 -75 -53 -210 -52 -260 0 -25 4 -19 24 32
13 34 40 94 59 133 20 39 36 78 36 87 0 9 3 13 6 10 4 -4 37 37 73 91 75 111
236 278 329 341 35 23 96 58 135 77 70 33 260 88 281 81 6 -2 -14 -15 -44 -29
-30 -14 -94 -54 -143 -88 -381 -274 -613 -820 -566 -1338 6 -70 12 -128 14
-130 2 -2 6 32 10 75 4 43 11 105 16 138 6 33 13 78 16 100 3 22 9 42 12 45 4
3 12 18 19 33 10 23 10 27 0 21 -7 -4 -4 2 6 14 11 12 16 22 12 22 -4 0 0 7 8
16 9 8 16 22 16 30 0 8 3 14 8 14 4 0 14 15 21 33 37 83 254 361 303 388 10 5
-9 -32 -42 -83 -122 -188 -203 -381 -247 -588 -25 -120 -25 -493 0 -628 19
-101 76 -283 102 -329 l16 -28 -6 35 c-3 19 -8 62 -11 95 -3 32 -7 62 -10 66
-2 4 0 11 6 14 8 5 8 11 1 19 -6 7 -8 15 -6 18 8 8 18 68 18 115 0 27 4 40 11
36 6 -3 8 -3 5 1 -4 4 4 41 17 83 20 62 22 78 12 91 -7 9 -8 13 -2 9 14 -8 37
34 38 71 1 17 4 28 8 26 4 -3 25 33 47 79 31 64 114 203 148 246 13 17 7 -19
-17 -114 -65 -253 -65 -565 -2 -810 l19 -70 -5 130 c-6 160 8 270 54 427 41
143 100 269 186 398 58 87 203 248 213 238 3 -3 -8 -29 -25 -60 -46 -85 -98
-238 -127 -376 -24 -115 -27 -147 -27 -337 0 -159 4 -231 17 -294 46 -224 125
-430 221 -574 64 -97 95 -130 66 -70 -26 54 -71 214 -63 226 4 6 1 7 -7 2 -10
-6 -12 -4 -7 8 3 10 2 17 -4 17 -6 0 -6 6 0 18 5 10 6 23 3 30 -4 6 -7 38 -7
71 1 34 -2 61 -7 61 -5 0 -6 5 -2 12 4 6 8 61 9 122 3 208 49 438 114 576 32
66 32 62 3 -65 -12 -53 -16 -126 -16 -305 -1 -263 15 -383 75 -561 89 -266
198 -449 365 -611 32 -32 72 -70 87 -85 23 -23 26 -24 21 -8 -7 18 -6 19 12 5
17 -14 18 -14 6 2 -8 10 -19 16 -25 15 -7 -1 -11 4 -10 10 2 7 -2 12 -9 10 -7
-1 -12 3 -13 10 0 6 -13 22 -29 36 -16 14 -26 29 -22 35 3 5 -1 12 -9 16 -8 3
-15 14 -15 24 0 26 -11 34 -28 19 -13 -11 -14 -9 -2 10 8 12 18 19 24 16 5 -3
6 -1 2 6 -6 9 -11 9 -21 1 -11 -9 -13 -3 -9 33 5 45 -10 71 -36 65 -7 -2 -15
4 -17 12 -4 12 -3 12 5 1 6 -8 12 -9 16 -3 3 5 -1 13 -10 16 -8 3 -12 11 -8
17 4 7 3 9 -3 6 -6 -4 -14 0 -17 9 -3 8 -2 12 4 9 6 -3 10 -1 10 4 0 6 -5 11
-11 11 -5 0 -7 5 -4 10 4 6 10 8 15 5 5 -3 3 7 -5 21 -8 15 -11 32 -8 37 4 6
1 7 -7 2 -10 -6 -12 -4 -6 10 8 22 -13 38 -31 23 -10 -8 -13 -6 -13 7 0 12 6
16 20 12 13 -3 20 0 20 10 0 8 -3 12 -7 10 -5 -3 -9 10 -10 29 -2 27 1 34 15
34 13 0 14 2 3 9 -8 5 -11 16 -6 30 3 11 2 21 -3 21 -5 0 -7 12 -4 26 4 21 2
25 -9 19 -11 -7 -12 -6 -3 6 7 9 9 39 5 83 -31 340 65 707 237 905 41 47 51
67 61 121 21 107 77 248 146 367 35 62 63 118 61 125 -1 7 -1 10 2 5 7 -14 42
41 36 57 -5 12 -2 15 10 10 9 -3 16 -1 16 6 0 6 -4 9 -9 5 -6 -3 -15 3 -21 12
-11 17 -11 17 -6 1 3 -10 1 -18 -5 -18 -6 0 -7 -5 -4 -11 5 -6 -2 -6 -16 2
-56 29 -56 29 -87 -6 -17 -18 -28 -36 -24 -41 4 -4 2 -4 -5 0 -29 16 -249
-262 -325 -411 -23 -46 -43 -83 -44 -83 -6 0 28 124 49 181 56 149 168 332
271 444 30 33 55 63 56 66 0 4 -7 12 -15 19 -11 9 -12 17 -4 34 9 18 7 17 -11
-4 -12 -14 -19 -19 -15 -13 4 9 1 11 -10 7 -13 -5 -13 -9 -3 -22 11 -13 10
-14 -8 -4 -12 6 -25 8 -29 4 -3 -4 -10 -7 -14 -7 -14 0 -60 -43 -53 -49 3 -4
-1 -4 -9 -1 -11 4 -47 -24 -113 -86 -108 -103 -206 -220 -267 -321 -23 -38
-43 -68 -45 -68 -2 0 7 29 21 65 62 167 163 324 295 462 79 82 94 95 178 156
28 21 52 46 52 54 0 13 -3 13 -15 3 -13 -11 -20 -9 -39 9 l-24 23 -99 -51
c-160 -82 -314 -204 -423 -336 l-33 -40 33 60 c115 211 330 404 573 514 97 44
113 56 80 57 -10 1 -30 4 -45 7 -15 3 -30 1 -34 -4 -4 -7 -10 -7 -18 0 -20 17
-121 3 -256 -35 -82 -24 -207 -79 -280 -124 -29 -18 -26 -13 19 29 112 108
272 194 439 237 124 32 306 35 420 6 39 -10 72 -15 72 -10 0 4 -7 8 -15 8 -13
0 -19 10 -17 30 0 3 -9 7 -21 7 -12 1 -28 10 -36 20 -12 15 -13 15 -8 1 7 -20
-14 -30 -34 -16 -11 8 -10 9 4 4 24 -8 21 11 -4 25 -15 7 -19 8 -15 0 5 -7 1
-9 -8 -5 -9 3 -13 11 -9 18 3 6 -3 2 -15 -8 -22 -19 -22 -19 -23 0 -1 10 -1
23 1 29 1 5 -7 2 -17 -6 -21 -18 -57 -17 -98 5 -34 18 -65 21 -65 6 0 -6 -12
-3 -26 6 -22 15 -27 15 -35 3 -7 -11 -9 -10 -10 6 0 11 -3 14 -6 7 -2 -6 -9
-9 -15 -6 -11 7 -36 7 -174 0 -85 -5 -127 0 -119 14 3 5 1 11 -4 15 -6 3 -7
13 -4 23 6 16 6 16 -11 0 -22 -22 -33 -24 -16 -3 11 13 11 18 0 28 -10 10 -11
9 -5 -3 6 -10 2 -9 -13 3 -11 11 -25 16 -31 12 -7 -3 -8 0 -5 10 5 13 2 14
-22 5 -16 -6 -44 -23 -61 -36 -51 -39 -39 -12 20 43 70 66 132 108 230 153
112 52 183 70 312 76 217 12 397 -51 599 -207 l28 -22 -7 44 c-7 40 -33 223
-37 259 -1 8 -8 21 -17 28 -15 11 -15 12 0 7 13 -5 16 1 14 37 -3 54 -2 53
-21 37 -21 -17 -42 -20 -41 -5 1 18 -24 76 -33 76 -5 0 -7 -9 -5 -20 2 -11 0
-18 -5 -15 -4 3 -7 13 -5 23 2 9 4 21 4 25 1 5 6 5 13 1 7 -4 8 -3 4 5 -9 13
-37 11 -48 -4 -5 -6 -8 -3 -8 7 0 9 6 19 13 21 7 3 5 6 -5 6 -12 1 -18 -6 -18
-19 0 -11 -5 -20 -11 -20 -5 0 -8 4 -5 9 3 5 -1 12 -10 15 -12 5 -14 1 -9 -17
6 -17 5 -19 -5 -10 -7 6 -19 9 -26 6 -12 -4 -12 -8 -2 -22 12 -14 11 -14 -4
-2 -15 11 -23 10 -54 -9 l-37 -21 16 23 c41 56 41 55 -19 83 -34 16 -62 24
-72 19 -10 -4 -24 -6 -32 -5 -13 2 -13 1 0 -8 9 -7 10 -11 3 -11 -6 0 -14 4
-17 9 -6 10 -56 2 -56 -9 0 -4 -12 -5 -26 -2 -15 3 -24 1 -21 -4 3 -5 -36 -9
-88 -9 -53 0 -91 4 -87 9 3 5 -5 6 -18 3 -13 -3 -28 0 -37 9 -8 8 -25 14 -38
14 -13 0 -26 4 -29 9 -3 5 -22 12 -41 15 -19 4 -35 11 -35 17 0 5 -11 7 -26 3
-19 -5 -25 -3 -20 4 4 6 -19 2 -51 -9 -32 -11 -114 -34 -183 -49 -69 -16 -136
-32 -150 -36 -14 -3 43 31 125 76 83 45 159 91 170 103 l20 21 -24 -19 c-20
-17 -23 -17 -18 -3 7 20 -26 31 -44 14 -8 -7 -10 -7 -6 0 15 26 -253 4 -383
-31 -30 -8 -59 -15 -65 -15 -22 1 146 74 258 112 85 29 117 45 117 57 0 11 -3
12 -8 4 -6 -9 -12 -7 -25 8 -10 11 -22 17 -27 14 -6 -3 -10 -2 -10 3 0 5 -21
15 -47 23 -84 24 -290 7 -428 -35 -42 -13 -47 -13 -31 -1 26 20 136 60 224 82
58 14 69 19 50 24 -33 10 -204 8 -266 -2z m1373 -409 c3 -5 1 -10 -4 -10 -6 0
-11 5 -11 10 0 6 2 10 4 10 3 0 8 -4 11 -10z m97 -25 c2 3 5 -2 5 -10 0 -19
-14 -10 -27 18 -10 20 -10 20 3 5 8 -10 16 -16 19 -13z m288 -115 c0 -5 -5
-10 -11 -10 -5 0 -7 5 -4 10 3 6 8 10 11 10 2 0 4 -4 4 -10z m-45 -48 c-3 -3
0 -11 6 -19 9 -9 8 -13 0 -13 -6 0 -12 5 -12 10 -3 20 -4 25 -14 40 -8 13 -7
13 8 1 10 -8 15 -16 12 -19z m-498 -488 c-3 -3 -12 -4 -19 -1 -8 3 -5 6 6 6
11 1 17 -2 13 -5z m293 -84 c0 -13 -11 -13 -30 0 -12 8 -11 10 8 10 12 0 22
-4 22 -10z m-163 -776 c-3 -3 -12 -4 -19 -1 -8 3 -5 6 6 6 11 1 17 -2 13 -5z
m-1689 -729 c-3 -3 -9 2 -12 12 -6 14 -5 15 5 6 7 -7 10 -15 7 -18z m78 -12
c-2 -10 -12 -18 -24 -19 -12 -1 -19 2 -16 7 2 4 11 6 20 2 8 -3 14 -2 13 3 -2
13 0 24 5 24 2 0 3 -8 2 -17z m-36 -37 c0 -2 -7 -7 -16 -10 -8 -3 -12 -2 -9 4
6 10 25 14 25 6z m12 -28 c-13 -13 -64 -20 -56 -7 2 4 13 6 24 4 11 -2 22 0
25 6 4 5 9 9 13 9 3 0 1 -5 -6 -12z m-63 -52 c9 -11 9 -16 -1 -22 -7 -4 -10
-4 -6 1 4 4 3 14 -3 22 -6 7 -9 13 -6 13 2 0 10 -6 16 -14z m48 -9 c0 -8 -6
-14 -14 -14 -9 0 -10 4 -2 14 6 7 12 13 14 13 1 0 2 -6 2 -13z m-22 -57 c4 -6
1 -9 -6 -8 -7 2 -14 -4 -15 -12 0 -8 -2 -18 -4 -22 -1 -5 -3 -12 -4 -17 0 -5
-4 -12 -8 -16 -3 -4 -5 0 -4 9 1 8 5 19 9 22 10 11 8 26 -2 19 -5 -3 -13 0
-17 6 -4 7 -3 9 3 6 6 -4 16 0 23 8 15 18 17 18 25 5z m-7 -105 c-3 -3 -9 2
-12 12 -6 14 -5 15 5 6 7 -7 10 -15 7 -18z m1197 -895 c-5 -8 -11 -8 -19 -1
-7 6 -16 7 -21 3 -4 -4 -1 3 6 15 12 19 16 21 27 9 8 -8 11 -19 7 -26z m-8
-35 c0 -8 -4 -12 -9 -9 -5 3 -6 10 -3 15 9 13 12 11 12 -6z m-7 -29 c0 -2 -7
-7 -16 -10 -8 -3 -12 -2 -9 4 6 10 25 14 25 6z m90 -92 c0 -19 -14 -18 -31 3
-10 11 -10 14 -1 9 7 -4 12 -2 12 4 0 6 5 8 10 5 6 -3 10 -13 10 -21z m-5 -34
c3 -5 -1 -10 -10 -10 -9 0 -13 5 -10 10 3 6 8 10 10 10 2 0 7 -4 10 -10z"/>
<path d="M4035 2700 c3 -5 8 -10 11 -10 2 0 4 5 4 10 0 6 -5 10 -11 10 -5 0
-7 -4 -4 -10z"/>
<path d="M6590 6538 c-40 -44 -12 -118 45 -118 31 0 75 41 75 70 0 29 -44 70
-74 70 -14 0 -34 -10 -46 -22z"/>
<path d="M5320 6491 c-155 -48 -237 -193 -247 -442 -6 -121 -5 -127 15 -133
11 -4 19 -14 17 -24 -1 -9 0 -11 2 -4 3 7 8 10 12 7 4 -2 8 9 9 25 0 17 -3 30
-8 30 -5 0 -7 7 -4 15 4 8 11 12 18 8 8 -5 8 -3 -1 8 -11 14 -17 61 -14 106 2
32 46 80 82 87 40 8 67 -8 84 -48 19 -44 8 -84 -55 -214 -121 -245 -143 -407
-95 -688 17 -95 45 -207 52 -201 2 2 -2 39 -8 83 -13 85 -13 95 -5 137 3 17 0
27 -7 27 -8 0 -9 3 -1 8 13 9 12 85 -1 94 -6 5 -5 8 4 8 11 0 11 3 0 17 -10
11 -10 14 -1 9 8 -5 12 -1 12 13 0 10 -6 22 -12 24 -8 3 -6 6 5 6 20 1 22 12
5 30 -9 10 -9 12 -1 7 7 -4 13 3 15 19 2 14 8 25 13 25 10 0 12 -16 14 -93 1
-27 5 -36 14 -31 9 5 9 4 0 -6 -10 -11 -9 -18 5 -34 9 -11 11 -16 5 -12 -7 4
-13 3 -13 -1 0 -5 6 -15 13 -22 10 -11 9 -12 -2 -6 -9 5 -12 2 -8 -11 3 -11
10 -47 17 -81 7 -35 17 -60 21 -57 5 3 9 1 9 -5 0 -5 -5 -11 -12 -13 -7 -3 -9
-11 -3 -24 4 -10 7 -23 6 -27 -3 -14 40 -321 59 -422 23 -120 28 -137 44 -128
6 4 4 -2 -4 -12 -11 -14 -12 -19 -2 -22 6 -3 10 -9 6 -14 -8 -13 6 -70 15 -64
5 2 6 -7 3 -20 -2 -14 0 -25 4 -25 5 0 10 -17 12 -37 3 -41 8 -51 21 -37 25
26 106 474 146 809 3 28 7 64 10 82 2 18 6 40 9 50 2 10 7 47 11 83 8 87 10
98 18 106 4 4 7 -3 7 -15 0 -15 4 -20 13 -15 9 6 9 5 0 -8 -7 -8 -11 -17 -9
-19 2 -2 7 -24 11 -49 4 -24 10 -51 14 -60 5 -8 6 -21 4 -27 -3 -7 1 -13 9
-13 10 0 9 -3 -2 -10 -12 -8 -12 -10 -1 -10 11 0 11 -3 1 -15 -9 -10 -9 -15
-1 -15 6 0 11 -9 11 -20 0 -11 -6 -20 -12 -20 -10 0 -10 -2 -1 -8 9 -5 7 -28
-8 -91 -11 -46 -18 -86 -16 -88 7 -6 58 172 69 242 6 39 8 125 5 195 -4 106
-10 139 -36 215 -17 50 -54 127 -81 172 -28 45 -50 85 -50 89 0 10 82 -66 108
-100 29 -39 29 -17 1 67 -41 125 -109 197 -207 222 l-47 12 -3 207 -2 206 -28
-1 c-15 0 -38 -4 -52 -8z m-223 -543 c-3 -8 -6 -5 -6 6 -1 11 2 17 5 13 3 -3
4 -12 1 -19z"/>
<path d="M4600 6191 c0 -5 5 -13 10 -16 6 -3 10 -2 10 4 0 5 -4 13 -10 16 -5
3 -10 2 -10 -4z"/>
<path d="M4892 6093 c-9 -17 1 -63 12 -63 3 0 3 7 0 15 -4 10 0 13 15 10 11
-2 23 0 26 5 3 5 -4 7 -15 5 -18 -4 -26 9 -21 38 2 13 -8 7 -17 -10z"/>
<path d="M5081 5894 c0 -11 3 -14 6 -6 3 7 2 16 -1 19 -3 4 -6 -2 -5 -13z"/>
<path d="M8276 5811 l-7 -98 65 -134 c62 -129 110 -265 141 -400 l15 -64 -5
117 c-4 124 -37 294 -82 428 -28 87 -103 250 -113 250 -4 0 -11 -44 -14 -99z"/>
<path d="M4314 5711 c-81 -13 -224 -65 -212 -76 2 -3 78 -9 168 -15 187 -12
327 -33 406 -60 30 -11 54 -17 54 -14 0 2 39 -16 87 -41 61 -32 93 -43 107
-38 12 4 27 6 35 4 20 -4 -22 51 -67 89 -50 42 -181 106 -267 130 -79 23 -233
33 -311 21z"/>
<path d="M4936 5461 c-4 -7 -5 -15 -2 -18 9 -9 19 4 14 18 -4 11 -6 11 -12 0z"/>
<path d="M4964 5439 c-3 -6 0 -18 9 -26 13 -13 14 -12 10 11 -6 29 -9 31 -19
15z"/>
<path d="M8221 5405 c0 -5 8 -39 19 -73 11 -35 22 -78 25 -95 3 -18 10 -48 15
-67 12 -44 12 -53 0 -45 -5 3 -10 1 -10 -4 0 -6 -5 -11 -10 -11 -7 0 -7 6 0
19 19 36 10 46 -11 14 -12 -18 -26 -33 -32 -34 -7 0 -3 -4 8 -9 18 -8 18 -9 2
-9 -11 -1 -15 -6 -11 -13 5 -7 3 -8 -5 -3 -7 4 -11 16 -8 26 3 10 0 20 -7 23
-6 3 -2 4 9 1 26 -6 64 50 46 68 -8 8 -11 6 -11 -9 0 -21 -17 -44 -33 -44 -4
0 -5 4 -2 10 3 6 -1 7 -9 4 -9 -3 -13 -10 -11 -15 3 -4 -3 -14 -15 -21 -19
-12 -28 -29 -12 -27 19 3 24 -2 13 -15 -12 -15 -4 -76 11 -76 5 0 7 -4 4 -9
-3 -5 4 -51 15 -102 11 -52 21 -130 22 -174 l2 -80 -30 2 c-28 2 -29 1 -11
-12 11 -8 28 -15 38 -15 22 0 24 -16 2 -24 -8 -3 -13 -2 -10 3 7 11 -22 23
-36 15 -5 -3 -7 -12 -4 -20 3 -8 1 -14 -4 -14 -6 0 -10 5 -10 12 0 6 -3 8 -7
5 -3 -4 -12 -2 -20 4 -7 6 -13 8 -13 3 0 -5 -5 -2 -11 6 -9 13 -10 13 -6 0 6
-20 -11 -52 -24 -45 -5 4 -9 1 -9 -4 0 -6 5 -11 11 -11 5 0 7 -5 4 -10 -4 -6
3 -42 14 -80 54 -176 100 -539 87 -680 l-6 -65 19 35 c33 61 90 227 116 330
47 195 60 310 60 540 0 321 -43 564 -133 760 -11 25 -21 41 -21 35z m-76 -838
c6 -5 3 -7 -7 -3 -10 3 -18 1 -18 -4 0 -6 5 -10 10 -10 6 0 10 -5 10 -12 0 -8
-5 -7 -15 3 -9 9 -13 23 -9 33 3 9 9 13 13 9 3 -4 11 -12 16 -16z"/>
<path d="M4760 5352 c0 -6 9 -12 20 -15 11 -3 20 -3 20 -1 0 2 -9 8 -20 14
-11 6 -20 7 -20 2z"/>
<path d="M8210 5211 c0 -6 4 -13 10 -16 6 -3 7 1 4 9 -7 18 -14 21 -14 7z"/>
<path d="M4327 5053 c-8 -8 11 -33 25 -33 6 0 4 8 -3 17 -12 15 -12 16 4 10
11 -4 16 -3 12 3 -7 11 -28 13 -38 3z"/>
<path d="M4416 4832 c-3 -5 1 -15 9 -22 13 -11 18 -10 29 6 8 10 12 21 10 24
-3 2 -9 -2 -15 -10 -7 -13 -10 -13 -18 -1 -5 8 -11 9 -15 3z"/>
<path d="M4500 4669 c0 -5 11 -9 25 -9 14 0 25 2 25 4 0 2 -11 6 -25 8 -14 3
-25 1 -25 -3z"/>
<path d="M8198 4663 c6 -2 9 -10 6 -15 -4 -7 -2 -8 5 -4 13 9 5 26 -12 25 -9
0 -8 -2 1 -6z"/>
<path d="M8049 4617 c6 -8 8 -17 4 -21 -4 -4 1 -4 12 0 17 7 18 5 8 -7 -10
-13 -10 -16 2 -16 21 0 19 19 -5 40 -24 20 -37 23 -21 4z"/>
<path d="M8150 4620 c0 -6 -6 -8 -12 -4 -7 4 -9 3 -5 -1 10 -12 37 -15 37 -5
0 5 -4 12 -10 15 -5 3 -10 1 -10 -5z"/>
<path d="M4687 4519 c7 -7 15 -10 18 -7 3 3 -2 9 -12 12 -14 6 -15 5 -6 -5z"/>
<path d="M4656 4501 c-4 -6 -5 -15 -2 -19 3 -5 -6 -15 -20 -22 -14 -8 -22 -20
-19 -27 2 -8 1 -12 -4 -9 -11 7 -89 -109 -139 -210 -60 -119 -168 -399 -187
-485 -11 -49 -19 -140 -22 -269 -5 -174 -3 -209 17 -310 12 -63 35 -157 52
-210 30 -96 88 -234 95 -226 2 2 -7 39 -19 82 -21 71 -23 100 -23 284 0 181 3
216 23 295 13 50 36 117 52 150 l29 60 -7 -70 c-12 -117 -6 -334 12 -435 20
-111 81 -300 127 -391 40 -81 135 -219 194 -284 l45 -50 -35 68 c-19 37 -35
74 -35 82 0 8 -4 15 -8 15 -4 0 -9 10 -9 22 -1 13 -7 24 -13 26 -5 2 -8 8 -4
13 3 5 -1 9 -8 9 -8 0 -9 3 -3 8 7 5 7 21 0 50 -6 24 -15 39 -19 35 -5 -4 -6
-2 -2 5 9 15 -3 124 -13 118 -3 -2 -6 82 -6 187 0 171 3 202 25 287 l25 95 6
-165 c9 -242 45 -386 149 -606 70 -149 121 -224 219 -326 95 -101 121 -116 76
-46 -18 29 -39 60 -47 69 -12 15 -16 24 -23 59 -2 8 -10 31 -18 50 -8 19 -20
48 -26 64 -10 25 -14 26 -29 15 -16 -13 -16 -12 -1 6 18 22 18 24 -2 135 -7
41 -13 140 -13 220 1 148 13 227 52 339 l18 55 12 -72 c31 -188 123 -387 241
-522 l30 -35 1 566 c0 479 -2 573 -15 609 -8 23 -15 54 -15 67 0 19 -4 24 -16
19 -8 -3 -12 -2 -9 4 3 6 -3 10 -13 10 -16 0 -20 6 -18 34 1 19 -1 34 -4 34
-19 -1 -23 4 -10 12 10 7 11 10 2 10 -7 0 -17 -11 -24 -25 -9 -20 -14 -22 -29
-14 -17 9 -19 5 -20 -28 -1 -21 -3 -49 -5 -63 -6 -50 -5 -330 2 -364 11 -61
-4 -40 -30 42 -39 126 -63 293 -67 474 -1 48 -5 85 -10 82 -4 -2 -7 -10 -5
-17 1 -7 1 -9 -1 -4 -3 4 -9 5 -14 2 -5 -4 -6 2 -2 11 5 13 3 15 -7 9 -9 -5
-11 -4 -6 4 4 6 12 9 17 6 5 -3 6 1 3 10 -4 8 -11 14 -18 13 -19 -4 -54 25
-50 41 5 18 -22 -38 -41 -84 -30 -72 -74 -336 -76 -449 0 -81 -13 -49 -28 70
-17 137 -14 289 8 395 11 52 18 109 17 127 -1 17 1 32 5 32 12 0 5 35 -9 43
-7 5 -10 13 -6 18 3 5 0 8 -8 7 -7 -2 -12 2 -11 9 1 6 -4 17 -13 24 -9 8 -14
8 -12 1 2 -6 -6 -18 -17 -27 -11 -9 -14 -13 -7 -10 9 5 12 1 10 -10 -2 -11 4
-19 16 -21 14 -2 16 0 7 9 -6 6 -11 17 -11 25 0 11 3 11 15 -2 8 -8 15 -21 15
-29 0 -9 6 -17 13 -20 8 -3 6 -11 -9 -26 -20 -21 -21 -21 -35 -4 -13 16 -12
17 2 5 13 -10 19 -10 28 2 7 9 8 17 2 20 -5 3 -12 0 -14 -6 -3 -8 -6 -5 -6 6
-1 16 -3 17 -18 5 -9 -8 -14 -9 -10 -3 4 7 1 17 -7 23 -14 12 -47 -48 -108
-194 -29 -70 -87 -277 -89 -318 -1 -14 -4 -9 -9 13 -25 105 23 407 92 578 28
67 29 75 14 88 -9 8 -11 9 -6 2 6 -7 10 -19 10 -27 0 -11 -4 -10 -15 5 -15 19
-15 19 -9 -1 7 -20 7 -20 -9 0 -11 14 -12 24 -5 32 8 10 6 13 -5 13 -9 0 -20
7 -25 16 -6 11 -11 13 -16 5z m22 -36 c-3 -3 -9 2 -12 12 -6 14 -5 15 5 6 7
-7 10 -15 7 -18z m-6 -20 c3 0 9 -3 13 -7 4 -3 0 -5 -9 -4 -9 1 -22 8 -29 16
-10 10 -9 11 3 4 8 -5 18 -9 22 -9z m53 -45 c-3 -5 -12 -10 -18 -10 -7 0 -6 4
3 10 19 12 23 12 15 0z m-40 -9 c3 -5 2 -12 -3 -15 -5 -3 -9 1 -9 9 0 17 3 19
12 6z m360 -281 c-3 -5 -12 -10 -18 -10 -7 0 -6 4 3 10 19 12 23 12 15 0z"/>
<path d="M7860 4470 c5 -18 7 -37 4 -41 -3 -5 0 -9 7 -9 13 0 5 58 -11 74 -6
6 -6 -2 0 -24z"/>
<path d="M5956 4448 c3 -5 10 -6 15 -3 13 9 11 12 -6 12 -8 0 -12 -4 -9 -9z"/>
<path d="M7885 4420 c-4 -11 -11 -18 -16 -15 -5 4 -9 1 -9 -4 0 -6 5 -11 12
-11 8 0 9 -3 2 -10 -7 -7 -6 -40 2 -102 19 -134 21 -358 4 -358 -5 0 -7 15 -5
33 4 26 3 27 -3 7 -5 -17 -10 -21 -16 -12 -4 6 -13 12 -19 12 -7 0 -6 -4 3
-10 8 -5 12 -10 8 -11 -5 -1 -12 -3 -18 -4 -5 -1 -13 -3 -17 -4 -5 -1 0 -6 11
-12 14 -9 20 -8 26 1 5 9 9 9 14 1 4 -6 2 -11 -4 -11 -6 0 -8 -5 -4 -11 5 -8
1 -8 -13 0 -11 6 -23 8 -26 4 -4 -3 -18 2 -31 11 -35 23 -51 20 -52 -9 -1 -14
1 -23 5 -21 3 2 6 -8 7 -22 0 -15 11 -81 23 -147 31 -167 38 -398 17 -529 -9
-54 -15 -101 -13 -103 10 -9 139 270 161 347 53 189 76 410 57 566 -24 201
-72 411 -92 398 -6 -3 -7 4 -3 20 7 31 -2 35 -11 6z m25 -54 c0 -2 -7 -9 -15
-16 -13 -11 -14 -10 -9 4 5 14 24 23 24 12z m-117 -479 c-5 -8 -8 -7 -11 1 -2
7 -7 10 -12 7 -4 -3 -10 2 -13 10 -5 12 -2 12 18 3 13 -6 21 -16 18 -21z m94
8 c0 -8 -4 -12 -9 -9 -4 3 -8 9 -8 15 0 5 4 9 8 9 5 0 9 -7 9 -15z m-53 -4 c3
-5 -3 -11 -15 -14 -16 -4 -18 -3 -8 9 13 16 16 17 23 5z m49 -46 c-3 -9 -8
-14 -10 -11 -3 3 -2 9 2 15 9 16 15 13 8 -4z"/>
<path d="M5860 4410 c0 -5 -7 -10 -17 -10 -26 0 -6 -13 22 -15 24 -1 40 17 28
29 -10 10 -33 7 -33 -4z"/>
<path d="M5770 4396 c0 -2 8 -10 18 -17 15 -13 16 -12 3 4 -13 16 -21 21 -21
13z"/>
<path d="M5853 4373 c-15 -5 -17 -23 -4 -23 5 0 11 7 15 15 3 8 4 15 3 14 -1
0 -8 -3 -14 -6z"/>
<path d="M5650 4300 c-12 -7 -10 -9 7 -7 12 0 19 5 17 9 -6 10 -6 10 -24 -2z"/>
<path d="M5700 4266 c0 -2 7 -6 15 -10 8 -3 15 -1 15 4 0 6 -7 10 -15 10 -8 0
-15 -2 -15 -4z"/>
<path d="M5668 4253 c7 -3 16 -2 19 1 4 3 -2 6 -13 5 -11 0 -14 -3 -6 -6z"/>
<path d="M5057 4163 c-8 -7 11 -33 24 -33 5 0 9 5 9 10 0 6 -6 9 -12 8 -7 -2
-12 3 -10 10 2 13 -1 15 -11 5z"/>
<path d="M5252 4001 c-16 -10 -12 -43 6 -49 6 -2 12 4 12 13 0 9 -5 13 -11 9
-8 -4 -8 0 0 15 13 23 12 25 -7 12z"/>
<path d="M7486 3951 c-4 -6 -1 -11 6 -11 10 0 9 -3 -2 -9 -8 -6 -17 -8 -20 -6
-3 2 -3 -24 1 -58 16 -128 14 -467 -2 -467 -6 0 -9 6 -6 14 7 17 -16 39 -28
28 -5 -4 -5 1 -2 11 4 10 3 16 -2 13 -5 -3 -12 1 -15 10 -4 9 -9 14 -13 11 -3
-4 -1 -13 6 -20 13 -17 4 -50 -12 -40 -7 4 -8 0 -3 -12 6 -16 4 -16 -10 -4
-10 8 -12 15 -5 17 6 2 8 9 5 14 -4 7 -2 8 4 4 17 -11 15 9 -3 24 -15 12 -20
4 -16 -22 0 -5 -4 -8 -9 -8 -6 0 -8 11 -6 25 3 13 0 27 -5 31 -5 3 -9 2 -8 -3
1 -4 1 -21 0 -38 -1 -22 -4 -26 -10 -15 -6 8 -7 18 -5 22 3 4 1 8 -5 8 -6 0
-8 -22 -3 -62 4 -35 7 -142 7 -238 -1 -245 -37 -448 -110 -616 l-25 -59 63 66
c122 126 216 286 276 464 46 139 62 228 68 380 6 159 -8 263 -57 427 -33 112
-44 136 -54 119z m7 -46 c-3 -9 -8 -14 -10 -11 -3 3 -2 9 2 15 9 16 15 13 8
-4z m-49 -484 c3 -5 -1 -11 -9 -14 -9 -4 -12 -1 -8 9 6 16 10 17 17 5z m26
-71 c0 -5 -5 -10 -11 -10 -5 0 -7 5 -4 10 3 6 8 10 11 10 2 0 4 -4 4 -10z"/>
<path d="M7735 3950 c4 -6 11 -8 16 -5 14 9 11 15 -7 15 -8 0 -12 -5 -9 -10z"/>
<path d="M5320 3921 c0 -5 5 -13 10 -16 6 -3 10 -2 10 4 0 5 -4 13 -10 16 -5
3 -10 2 -10 -4z"/>
<path d="M7035 3760 c-3 -5 -1 -10 4 -10 6 0 11 5 11 10 0 6 -2 10 -4 10 -3 0
-8 -4 -11 -10z"/>
<path d="M7037 3733 c-2 -5 0 -46 4 -93 7 -95 3 -339 -7 -365 -5 -13 -9 -14
-15 -3 -7 11 -11 10 -19 -2 -7 -11 -10 -11 -10 -2 0 7 -4 10 -10 7 -5 -3 -10
-1 -10 4 0 6 5 11 11 11 5 0 7 5 4 10 -8 13 -55 13 -55 1 0 -15 18 -23 23 -11
3 6 4 5 3 -2 -5 -23 -32 -20 -33 3 -1 12 -6 26 -12 32 -6 6 -9 0 -7 -16 2 -15
-1 -24 -5 -21 -5 3 -9 1 -9 -5 0 -5 6 -12 13 -14 7 -3 5 -6 -5 -6 -16 -1 -18
-15 -18 -138 0 -366 -83 -690 -236 -930 -19 -29 -31 -53 -27 -53 15 0 139 119
187 179 255 321 369 698 327 1081 -16 145 -49 280 -70 281 -10 0 -12 2 -3 6 6
2 12 9 12 15 0 13 -28 40 -33 31z m-117 -493 c0 -5 -5 -10 -11 -10 -5 0 -7 5
-4 10 3 6 8 10 11 10 2 0 4 -4 4 -10z m107 -4 c0 -8 -6 -12 -15 -9 -11 5 -11
7 0 14 7 5 13 9 14 9 0 0 1 -6 1 -14z"/>
<path d="M6603 3523 c-7 -3 -13 -9 -13 -15 0 -7 5 -6 14 1 9 7 17 8 20 2 3 -5
0 -11 -6 -14 -7 -2 -10 -7 -7 -11 3 -4 11 0 18 7 13 17 -5 37 -26 30z"/>
<path d="M7313 3509 c-2 -23 3 -25 10 -4 4 8 3 16 -1 19 -4 3 -9 -4 -9 -15z"/>
<path d="M6591 3358 c-2 -124 -16 -256 -42 -388 -17 -86 -17 -85 -37 -67 -9 9
-20 15 -24 14 -3 -1 -10 1 -14 6 -4 4 2 7 13 7 12 0 24 7 27 16 5 14 4 15 -9
4 -14 -12 -19 -7 -16 13 1 5 -3 6 -9 2 -6 -3 -8 -10 -5 -15 3 -5 1 -11 -5 -15
-6 -3 -8 -17 -6 -30 3 -14 1 -27 -4 -30 -5 -3 -7 3 -5 15 2 11 -1 22 -6 25 -5
4 -7 10 -4 14 2 5 -5 17 -17 27 -12 11 -18 13 -14 6 6 -9 1 -11 -18 -8 -14 3
-26 0 -26 -6 0 -5 6 -8 13 -5 8 3 13 -3 13 -18 0 -13 -4 -21 -8 -19 -5 3 -6
10 -3 15 4 5 1 9 -4 9 -6 0 -11 -6 -12 -12 0 -7 -3 -25 -5 -40 -3 -18 0 -28 8
-28 8 0 6 -5 -4 -11 -10 -5 -18 -21 -18 -34 0 -52 -43 -243 -84 -373 -70 -222
-150 -383 -255 -511 l-36 -44 45 28 c216 139 395 339 510 570 96 193 144 370
157 570 6 108 -10 310 -32 381 -7 23 -10 46 -6 50 3 4 -2 4 -13 0 -10 -3 -24
-2 -31 4 -10 9 -13 -16 -14 -122z m54 34 c-3 -3 -11 0 -18 7 -9 10 -8 11 6 5
10 -3 15 -9 12 -12z m-215 -462 c-10 -6 -9 -9 1 -12 7 -2 9 -10 5 -16 -12 -20
-26 -13 -22 11 3 12 5 26 5 30 1 5 6 5 12 1 8 -5 8 -9 -1 -14z m95 -59 c3 -5
2 -12 -3 -15 -5 -3 -9 1 -9 9 0 17 3 19 12 6z m-15 -61 c0 -5 -4 -10 -10 -10
-5 0 -10 5 -10 10 0 6 5 10 10 10 6 0 10 -4 10 -10z"/>
<path d="M7450 3461 c0 -6 4 -12 8 -15 5 -3 9 1 9 9 0 8 -4 15 -9 15 -4 0 -8
-4 -8 -9z"/>
<path d="M6970 3329 c0 -5 4 -8 9 -5 10 7 24 -22 16 -34 -3 -4 3 -6 14 -3 17
4 17 6 -4 29 -24 26 -35 30 -35 13z"/>
<path d="M6076 3253 c-6 -14 -5 -15 5 -6 7 7 10 15 7 18 -3 3 -9 -2 -12 -12z"/>
<path d="M6120 3260 c-12 -8 -10 -10 8 -10 20 0 21 -2 10 -20 -15 -24 -25 -26
-30 -5 -2 13 -6 12 -21 -5 -18 -21 -18 -22 3 -15 20 6 21 5 10 -15 -10 -18
-14 -20 -21 -9 -6 9 -8 -7 -6 -43 2 -32 0 -58 -5 -58 -4 0 -8 -11 -8 -24 0
-95 -117 -515 -140 -501 -4 3 -6 -5 -2 -17 4 -17 2 -20 -12 -15 -10 4 -15 3
-11 -3 3 -6 2 -10 -3 -10 -6 0 -8 -10 -6 -22 4 -22 4 -22 -5 -3 -5 12 -16 27
-25 34 -14 12 -14 15 0 37 15 22 15 24 -1 30 -13 5 -14 9 -3 15 9 6 9 9 1 9
-18 0 -27 -20 -14 -33 15 -15 14 -30 -1 -21 -6 4 -9 3 -6 -2 3 -5 0 -15 -8
-21 -8 -8 -15 -9 -19 -3 -3 6 -1 10 6 10 7 0 9 3 5 7 -4 5 -14 -1 -23 -12 -15
-20 -15 -20 -11 0 2 16 -2 19 -23 17 -17 -2 -29 3 -32 12 -7 18 8 22 18 5 4
-6 13 -8 20 -5 7 2 18 -1 25 -7 10 -10 12 -8 6 7 -5 16 -4 17 9 6 16 -14 20
-3 6 19 -6 9 -11 10 -15 2 -4 -6 -14 -11 -22 -11 -8 0 -13 4 -9 9 3 5 0 13 -6
17 -8 5 -9 3 -4 -6 6 -10 3 -12 -12 -8 -15 4 -24 -1 -32 -18 -7 -16 -18 -23
-35 -21 -14 1 -25 -2 -26 -8 0 -5 3 -10 8 -10 12 -1 48 -24 36 -25 -6 0 -14 3
-18 7 -3 4 -15 8 -25 10 -13 2 -25 -14 -47 -60 -16 -34 -59 -107 -96 -163
l-67 -102 -1 -216 c0 -119 2 -216 6 -216 4 0 46 26 93 57 103 68 265 226 348
340 154 209 259 492 282 763 9 115 5 270 -8 283 -5 5 -7 -2 -4 -16 3 -14 1
-27 -4 -30 -12 -8 -13 54 -2 69 13 16 -13 35 -31 24z m-403 -732 c-3 -8 -6 -5
-6 6 -1 11 2 17 5 13 3 -3 4 -12 1 -19z"/>
<path d="M4040 2830 c0 -5 5 -10 11 -10 5 0 7 5 4 10 -3 6 -8 10 -11 10 -2 0
-4 -4 -4 -10z"/>
<path d="M5828 2663 c7 -3 16 -2 19 1 4 3 -2 6 -13 5 -11 0 -14 -3 -6 -6z"/>
<path d="M5870 2601 c0 -6 4 -13 10 -16 6 -3 7 1 4 9 -7 18 -14 21 -14 7z"/>
<path d="M5660 2578 c0 -12 3 -18 7 -14 11 10 12 36 2 36 -5 0 -9 -10 -9 -22z"/>
<path d="M5690 2581 c0 -25 6 -27 13 -6 4 8 2 17 -3 20 -6 4 -10 -3 -10 -14z"/>
<path d="M4415 1443 c-96 -50 -129 -137 -85 -222 11 -22 54 -70 96 -108 139
-123 154 -139 154 -166 0 -29 -41 -67 -72 -67 -30 0 -75 27 -98 60 l-22 30
-41 -25 c-23 -14 -48 -29 -56 -34 -32 -20 63 -128 134 -151 23 -8 64 -10 103
-7 114 9 182 78 182 187 0 78 -33 126 -158 228 -112 93 -127 116 -92 144 35
28 68 21 120 -28 l25 -23 50 44 50 43 -25 27 c-14 15 -47 40 -75 56 -58 33
-140 39 -190 12z"/>
<path d="M5315 1443 c-162 -59 -259 -210 -241 -378 12 -119 93 -231 204 -283
50 -24 70 -27 157 -27 90 0 105 3 153 28 75 40 124 87 163 159 31 59 34 69 34
158 0 82 -4 103 -27 152 -33 70 -99 138 -170 174 -71 36 -198 44 -273 17z
m223 -142 c102 -52 147 -191 95 -296 -74 -148 -292 -163 -388 -26 -27 39 -30
50 -30 125 0 73 3 87 27 124 64 96 190 127 296 73z"/>
<path d="M2750 1106 l0 -346 70 0 69 0 3 142 3 141 75 -139 75 -139 73 -3 c39
-2 72 0 72 4 0 4 -34 69 -75 145 -41 75 -75 141 -75 146 0 5 16 17 36 28 53
29 84 88 84 164 0 78 -26 131 -82 168 -39 26 -48 28 -185 32 l-143 3 0 -346z
m237 203 c33 -12 43 -26 43 -60 0 -43 -20 -59 -83 -66 l-57 -6 0 72 0 71 34 0
c19 0 47 -5 63 -11z"/>
<path d="M3570 1105 l0 -345 190 0 190 0 0 65 0 65 -125 0 -125 0 0 90 0 90
125 0 125 0 0 65 0 65 -125 0 -125 0 0 60 0 60 125 0 125 0 0 65 0 65 -190 0
-190 0 0 -345z"/>
<path d="M6180 1105 l0 -345 70 0 70 0 2 217 3 216 140 -216 140 -217 68 0 67
0 0 345 0 345 -70 0 -70 0 -2 -220 -3 -219 -141 217 -140 217 -67 3 -67 3 0
-346z"/>
<path d="M7150 1105 l0 -345 65 0 65 0 0 345 0 345 -65 0 -65 0 0 -345z"/>
<path d="M7700 1105 l0 -345 65 0 64 0 3 151 3 151 104 -151 103 -151 80 0
c63 0 78 3 71 13 -28 35 -253 366 -253 371 0 4 52 72 115 151 63 80 115 147
115 150 0 3 -36 5 -79 5 l-80 0 -88 -112 -88 -113 -3 113 -3 112 -64 0 -65 0
0 -345z"/>
</g>
</svg>
